<svg xmlns="http://www.w3.org/2000/svg" width="100" height="100" viewBox="0 0 100 100" fill="none"><path d="M67.9674 82.8105H46.0938C45.6619 82.8105 45.3125 82.4611 45.3125 82.0293C45.3125 81.5975 45.6619 81.248 46.0938 81.248H67.9676C68.3992 81.248 68.7486 81.5975 68.7486 82.0293C68.7486 82.4611 68.399 82.8105 67.9674 82.8105Z" fill="url(#paint0_linear_341_154)"></path><path d="M58.5929 84.3728C58.5165 84.3728 58.4403 84.3621 58.3671 84.3392C58.2065 84.2909 58.0657 84.192 57.9656 84.0573C57.8656 83.9227 57.8116 83.7594 57.8116 83.5916V80.7369C56.5802 81.7927 54.7357 83.0334 53.155 82.774C52.6956 82.6976 52.1296 82.4734 51.6489 81.8967C51.0517 82.6464 50.4376 83.3825 49.8071 84.1045C49.7401 84.1822 49.6583 84.2459 49.5665 84.2918C49.4747 84.3377 49.3747 84.365 49.2723 84.3721C49.1699 84.3792 49.0671 84.366 48.9698 84.3332C48.8725 84.3003 48.7827 84.2486 48.7056 84.1808C48.6281 84.1136 48.5647 84.0317 48.5189 83.9399C48.4732 83.8481 48.446 83.7482 48.4389 83.6459C48.4318 83.5436 48.4449 83.4409 48.4776 83.3436C48.5103 83.2464 48.5618 83.1566 48.6292 83.0793C49.4078 82.1827 50.1584 81.2621 50.8798 80.3189C50.306 78.2547 50.9599 76.4344 51.864 75.5707C52.5476 74.9176 53.4005 74.7299 54.1984 75.0564C54.5585 75.2013 54.8087 75.4928 54.9003 75.8758C55.1292 76.8416 54.0198 78.7244 52.6484 80.5918C52.9413 81.1472 53.2739 81.2082 53.396 81.2297C54.8163 81.4967 57.4194 79.0814 57.9886 78.4099C58.1991 78.1597 58.5532 78.0636 58.8583 78.1765C59.165 78.2894 59.3741 78.5763 59.3741 78.9045V81.0115L61.0677 78.4711C61.1392 78.3642 61.2358 78.2766 61.3492 78.2159C61.4626 78.1552 61.5891 78.1234 61.7177 78.1232H64.8425C65.2743 78.1232 65.6237 78.4726 65.6237 78.9045C65.6238 79.0071 65.6036 79.1087 65.5644 79.2035C65.5251 79.2983 65.4676 79.3844 65.395 79.4569C65.3225 79.5295 65.2363 79.587 65.1415 79.6262C65.0467 79.6655 64.9451 79.6856 64.8425 79.6855H62.1357L59.2429 84.025C59.1716 84.1321 59.075 84.2199 58.9616 84.2806C58.8482 84.3413 58.7215 84.373 58.5929 84.3728ZM53.3321 76.474C53.2253 76.4953 53.0941 76.558 52.9446 76.7013C52.5845 77.0429 52.3099 77.6685 52.2458 78.4254C52.8056 77.5908 53.2038 76.8951 53.3321 76.474ZM91.4032 90.6224C91.2746 90.6227 91.1479 90.591 91.0345 90.5303C90.9212 90.4696 90.8246 90.3817 90.7534 90.2746L87.6284 85.5873C87.5622 85.4884 87.5195 85.3757 87.5036 85.2578C87.4878 85.1399 87.4991 85.0199 87.5368 84.907L89.0597 80.3402V78.9045C89.0597 78.4726 89.4091 78.1232 89.8409 78.1232C90.2728 78.1232 90.6222 78.4726 90.6222 78.9045V80.4668C90.6222 80.5508 90.6085 80.6345 90.5825 80.714L89.1405 85.0383L92.0532 89.4082C92.1103 89.4935 92.1499 89.5892 92.1699 89.6899C92.1899 89.7905 92.1898 89.8941 92.1697 89.9947C92.1496 90.0953 92.1098 90.191 92.0526 90.2762C91.9955 90.3615 91.9221 90.4346 91.8366 90.4914C91.7082 90.5768 91.5575 90.6224 91.4032 90.6224Z" fill="url(#paint1_linear_341_154)"></path><path d="M91.4031 90.6225C91.2489 90.6223 91.0982 90.5767 90.9699 90.4912C90.8844 90.4344 90.811 90.3613 90.7539 90.2761C90.6967 90.1909 90.6569 90.0952 90.6368 89.9946C90.6167 89.8939 90.6166 89.7903 90.6366 89.6897C90.6566 89.589 90.6963 89.4933 90.7533 89.408L93.6658 85.0381L92.224 80.7139C92.1979 80.6341 92.1845 80.5506 92.1844 80.4666V78.9043C92.1844 78.4725 92.5338 78.123 92.9656 78.123C93.0682 78.123 93.1698 78.1432 93.2646 78.1824C93.3594 78.2217 93.4456 78.2792 93.5181 78.3518C93.5906 78.4243 93.6482 78.5105 93.6874 78.6053C93.7266 78.7001 93.7468 78.8017 93.7467 78.9043V80.34L95.2695 84.9068C95.3073 85.0197 95.3187 85.1397 95.3028 85.2576C95.2869 85.3756 95.2442 85.4883 95.1779 85.5871L92.0531 90.2744C91.982 90.3816 91.8854 90.4695 91.772 90.5303C91.6585 90.591 91.5318 90.6227 91.4031 90.6225ZM94.5279 67.1863H88.2783C87.8465 67.1863 87.4971 66.8369 87.4971 66.4053C87.4971 65.9734 87.8465 65.624 88.2783 65.624H94.5279C94.9598 65.624 95.3092 65.9734 95.3092 66.4053C95.3092 66.5079 95.2891 66.6095 95.2498 66.7043C95.2106 66.7991 95.153 66.8852 95.0805 66.9577C95.0079 67.0303 94.9218 67.0878 94.827 67.127C94.7321 67.1663 94.6305 67.1864 94.5279 67.1863Z" fill="url(#paint2_linear_341_154)"></path><path d="M88.2787 67.1863C88.0768 67.1861 87.8828 67.1079 87.7372 66.968C87.5916 66.8281 87.5057 66.6374 87.4974 66.4357L85.9351 27.3756C85.9274 27.1685 86.0021 26.9667 86.1428 26.8146C86.2835 26.6624 86.4788 26.5723 86.6859 26.5638C87.1068 26.5394 87.4793 26.8828 87.4974 27.3144L89.0599 66.3746C89.0676 66.5817 88.9929 66.7833 88.8522 66.9354C88.7114 67.0875 88.5162 67.1777 88.3091 67.1861L88.2787 67.1863ZM94.5283 67.1863H94.4978C94.2908 67.1779 94.0955 67.0877 93.9548 66.9356C93.8141 66.7835 93.7394 66.5819 93.747 66.3748L95.3095 27.3146C95.3279 26.883 95.6818 26.5412 96.1213 26.564C96.3283 26.5725 96.5236 26.6626 96.6643 26.8148C96.8051 26.9669 96.8797 27.1687 96.872 27.3758L95.3095 66.4359C95.3013 66.6376 95.2154 66.8283 95.0698 66.9682C94.9242 67.108 94.7302 67.1862 94.5283 67.1863Z" fill="url(#paint3_linear_341_154)"></path><path d="M96.0907 28.1264C95.6589 28.1264 95.3095 27.777 95.3095 27.3451C95.3095 23.7168 93.9942 21.8768 91.4034 21.8768C88.8126 21.8768 87.4974 23.7168 87.4974 27.3451C87.4974 27.777 87.1479 28.1264 86.7163 28.1264C86.2845 28.1264 85.9351 27.777 85.9351 27.3451C85.9351 22.8777 87.9276 20.3143 91.4034 20.3143C94.8792 20.3143 96.872 22.8777 96.872 27.3451C96.872 27.777 96.5226 28.1264 96.0907 28.1264Z" fill="url(#paint4_linear_341_154)"></path><path d="M92.9656 21.8768H89.8408C89.409 21.8768 89.0596 21.5274 89.0596 21.0955C89.0596 20.6639 89.409 20.3143 89.8408 20.3143H92.9656C93.0682 20.3142 93.1698 20.3344 93.2646 20.3736C93.3594 20.4129 93.4456 20.4704 93.5181 20.543C93.5906 20.6155 93.6482 20.7017 93.6874 20.7965C93.7266 20.8913 93.7468 20.9929 93.7467 21.0955C93.7467 21.5274 93.3973 21.8768 92.9656 21.8768ZM91.4031 48.4375C91.3005 48.4376 91.1989 48.4174 91.1041 48.3781C91.0093 48.3389 90.9232 48.2813 90.8507 48.2088C90.7781 48.1362 90.7206 48.0501 90.6814 47.9553C90.6421 47.8605 90.622 47.7589 90.6221 47.6563V24.2203C90.6221 23.7887 90.9715 23.4391 91.4031 23.4391C91.835 23.4391 92.1844 23.7885 92.1844 24.2203V47.6565C92.1844 47.7591 92.1643 47.8607 92.125 47.9555C92.0858 48.0503 92.0282 48.1364 91.9557 48.2089C91.8831 48.2815 91.7969 48.339 91.7021 48.3782C91.6073 48.4174 91.5057 48.4376 91.4031 48.4375ZM94.5279 70.3113H88.2783C87.8465 70.3113 87.4971 69.9619 87.4971 69.5301C87.4971 69.0983 87.8465 68.7488 88.2783 68.7488H94.5279C94.9598 68.7488 95.3092 69.0983 95.3092 69.5301C95.3092 69.9619 94.9598 70.3113 94.5279 70.3113Z" fill="url(#paint5_linear_341_154)"></path><path d="M94.5279 70.3113C94.0961 70.3113 93.7467 69.9619 93.7467 69.5301V66.4053C93.7467 65.9734 94.0961 65.624 94.5279 65.624C94.9598 65.624 95.3092 65.9734 95.3092 66.4053V69.5301C95.3092 69.9619 94.9598 70.3113 94.5279 70.3113ZM88.2783 70.3113C87.8465 70.3113 87.4971 69.9619 87.4971 69.5301V66.4053C87.4971 65.9734 87.8465 65.624 88.2783 65.624C88.7102 65.624 89.0596 65.9734 89.0596 66.4053V69.5301C89.0596 69.9619 88.7102 70.3113 88.2783 70.3113ZM94.5279 79.6855H88.2783C87.8465 79.6855 87.4971 79.3361 87.4971 78.9045C87.4971 78.4727 87.8465 78.1232 88.2783 78.1232H94.5279C94.9598 78.1232 95.3092 78.4727 95.3092 78.9045C95.3092 79.0071 95.2891 79.1087 95.2498 79.2035C95.2106 79.2983 95.153 79.3844 95.0805 79.457C95.0079 79.5295 94.9218 79.587 94.827 79.6263C94.7321 79.6655 94.6305 79.6856 94.5279 79.6855Z" fill="url(#paint6_linear_341_154)"></path><path d="M94.5281 79.6856C94.0963 79.6856 93.7469 79.3362 93.7469 78.9045V69.5301C93.7469 69.0983 94.0963 68.7489 94.5281 68.7489C94.96 68.7489 95.3094 69.0983 95.3094 69.5301V78.9045C95.3094 79.0071 95.2893 79.1087 95.25 79.2035C95.2108 79.2983 95.1532 79.3845 95.0807 79.457C95.0081 79.5295 94.922 79.5871 94.8271 79.6263C94.7323 79.6655 94.6307 79.6856 94.5281 79.6856ZM88.2785 79.6856C87.8467 79.6856 87.4973 79.3362 87.4973 78.9045V69.5301C87.4973 69.0983 87.8467 68.7489 88.2785 68.7489C88.7104 68.7489 89.0598 69.0983 89.0598 69.5301V78.9045C89.0598 79.0071 89.0396 79.1087 89.0004 79.2035C88.9612 79.2983 88.9036 79.3845 88.831 79.457C88.7585 79.5295 88.6723 79.5871 88.5775 79.6263C88.4827 79.6655 88.3811 79.6856 88.2785 79.6856ZM77.3418 93.7473C76.91 93.7473 76.5605 93.3979 76.5605 92.966V10.1588C76.5605 9.72698 76.91 9.37756 77.3418 9.37756C77.7736 9.37756 78.123 9.72698 78.123 10.1588V92.9662C78.1231 93.0688 78.1029 93.1704 78.0637 93.2652C78.0244 93.36 77.9669 93.4462 77.8943 93.5187C77.8218 93.5912 77.7356 93.6488 77.6408 93.688C77.546 93.7272 77.4444 93.7474 77.3418 93.7473Z" fill="url(#paint7_linear_341_154)"></path><path d="M77.3418 93.7473H10.1582C9.72656 93.7473 9.37695 93.3979 9.37695 92.9661C9.37695 92.5342 9.72637 92.1848 10.1582 92.1848H77.3418C77.7736 92.1848 78.123 92.5342 78.123 92.9661C78.123 93.3979 77.7736 93.7473 77.3418 93.7473Z" fill="url(#paint8_linear_341_154)"></path><path d="M10.1582 93.7473C9.72656 93.7473 9.37695 93.3978 9.37695 92.966V0.784363C9.37695 0.352527 9.72637 0.00311279 10.1582 0.00311279C10.59 0.00311279 10.9395 0.352527 10.9395 0.784363V92.9662C10.9395 93.0688 10.9193 93.1704 10.8801 93.2652C10.8408 93.36 10.7833 93.4461 10.7107 93.5187C10.6382 93.5912 10.552 93.6487 10.4572 93.688C10.3624 93.7272 10.2608 93.7473 10.1582 93.7473Z" fill="url(#paint9_linear_341_154)"></path><path d="M67.9674 1.56543H10.1582C9.72656 1.56543 9.37695 1.21602 9.37695 0.78418C9.37695 0.352344 9.72637 0.00292979 10.1582 0.00292979H67.9674C68.07 0.00287842 68.1716 0.0230524 68.2664 0.0622981C68.3612 0.101544 68.4473 0.159091 68.5199 0.23165C68.5924 0.304208 68.6499 0.390355 68.6891 0.485162C68.7284 0.57997 68.7485 0.681579 68.7484 0.78418C68.7484 1.21602 68.399 1.56543 67.9674 1.56543Z" fill="url(#paint10_linear_341_154)"></path><path d="M77.342 10.9398C77.2394 10.9399 77.1378 10.9198 77.043 10.8805C76.9482 10.8412 76.8621 10.7836 76.7896 10.7109L67.4152 1.33652C67.274 1.18899 67.1962 0.992014 67.1984 0.787786C67.2006 0.583558 67.2827 0.388319 67.4271 0.243886C67.5715 0.0994541 67.7667 0.0173148 67.971 0.0150622C68.1752 0.0128097 68.3722 0.0906229 68.5197 0.231835L77.8943 9.60625C78.0036 9.71551 78.0779 9.8547 78.1081 10.0062C78.1382 10.1577 78.1227 10.3148 78.0636 10.4575C78.0045 10.6003 77.9044 10.7223 77.7759 10.8081C77.6475 10.894 77.4965 10.9398 77.342 10.9398ZM66.4051 12.5023C66.3025 12.5024 66.2009 12.4822 66.1061 12.443C66.0113 12.4037 65.9251 12.3462 65.8526 12.2736C65.7801 12.2011 65.7225 12.1149 65.6833 12.0201C65.6441 11.9253 65.6239 11.8237 65.624 11.7211V3.90918C65.624 3.47734 65.9734 3.12793 66.4051 3.12793C66.8369 3.12793 67.1863 3.47734 67.1863 3.90918V11.7211C67.1863 12.1529 66.8369 12.5023 66.4051 12.5023Z" fill="url(#paint11_linear_341_154)"></path><path d="M74.2171 12.5023H66.405C66.3024 12.5024 66.2008 12.4822 66.106 12.443C66.0112 12.4037 65.925 12.3462 65.8525 12.2736C65.78 12.201 65.7224 12.1149 65.6832 12.0201C65.644 11.9253 65.6238 11.8237 65.6239 11.7211C65.6239 11.2894 65.9733 10.9398 66.405 10.9398H74.2171C74.3197 10.9398 74.4213 10.9599 74.5161 10.9992C74.6109 11.0384 74.697 11.096 74.7696 11.1685C74.8421 11.2411 74.8996 11.3272 74.9389 11.4221C74.9781 11.5169 74.9982 11.6185 74.9981 11.7211C74.9981 12.1529 74.6487 12.5023 74.2171 12.5023ZM67.9675 42.1879H19.5327C19.1011 42.1879 18.7515 41.8385 18.7515 41.4066C18.7515 40.9748 19.1009 40.6254 19.5327 40.6254H67.9675C68.0701 40.6253 68.1717 40.6455 68.2665 40.6847C68.3613 40.724 68.4474 40.7815 68.52 40.8541C68.5925 40.9266 68.65 41.0128 68.6892 41.1076C68.7285 41.2024 68.7486 41.304 68.7485 41.4066C68.7485 41.8385 68.3991 42.1879 67.9675 42.1879ZM67.9675 48.4375H19.5327C19.1011 48.4375 18.7515 48.0881 18.7515 47.6562C18.7515 47.2244 19.1009 46.875 19.5327 46.875H67.9675C68.0701 46.8749 68.1717 46.8951 68.2665 46.9343C68.3613 46.9736 68.4474 47.0311 68.52 47.1037C68.5925 47.1763 68.65 47.2624 68.6892 47.3572C68.7285 47.452 68.7486 47.5536 68.7485 47.6562C68.7485 48.0881 68.3991 48.4375 67.9675 48.4375Z" fill="url(#paint12_linear_341_154)"></path><path d="M67.9675 54.6871H19.5327C19.1011 54.6871 18.7515 54.3377 18.7515 53.9061C18.7515 53.4742 19.1009 53.1248 19.5327 53.1248H67.9675C68.0701 53.1248 68.1717 53.1449 68.2665 53.1842C68.3613 53.2234 68.4474 53.281 68.52 53.3535C68.5925 53.4261 68.65 53.5122 68.6892 53.607C68.7285 53.7019 68.7486 53.8035 68.7485 53.9061C68.7486 54.0087 68.7284 54.1102 68.6892 54.205C68.65 54.2998 68.5924 54.3859 68.5199 54.4585C68.4474 54.531 68.3612 54.5885 68.2664 54.6278C68.1717 54.667 68.0701 54.6872 67.9675 54.6871Z" fill="url(#paint13_linear_341_154)"></path><path d="M67.9675 60.9367H19.5327C19.1011 60.9367 18.7515 60.5873 18.7515 60.1556C18.7515 59.7238 19.1009 59.3744 19.5327 59.3744H67.9675C68.0701 59.3743 68.1717 59.3945 68.2665 59.4338C68.3613 59.473 68.4474 59.5306 68.52 59.6031C68.5925 59.6757 68.65 59.7618 68.6892 59.8566C68.7285 59.9514 68.7486 60.053 68.7485 60.1556C68.7486 60.2582 68.7284 60.3598 68.6892 60.4546C68.65 60.5494 68.5924 60.6355 68.5199 60.708C68.4474 60.7806 68.3612 60.8381 68.2664 60.8773C68.1717 60.9166 68.0701 60.9367 67.9675 60.9367Z" fill="url(#paint14_linear_341_154)"></path><path d="M44.5313 67.1863H19.5327C19.1011 67.1863 18.7515 66.8369 18.7515 66.4053C18.7515 65.9734 19.1009 65.624 19.5327 65.624H44.5313C44.9632 65.624 45.3126 65.9734 45.3126 66.4053C45.3126 66.8369 44.963 67.1863 44.5313 67.1863Z" fill="url(#paint15_linear_341_154)"></path><path d="M28.1259 31.2511C22.9565 31.2511 18.7515 27.0461 18.7515 21.8767C18.7515 16.7074 22.9565 12.5023 28.1259 12.5023C33.2952 12.5023 37.5003 16.7074 37.5003 21.8767C37.5003 27.0461 33.2952 31.2511 28.1259 31.2511ZM28.1259 14.0646C23.8187 14.0646 20.3138 17.5693 20.3138 21.8767C20.3138 26.1842 23.8185 29.6888 28.1259 29.6888C32.4333 29.6888 35.938 26.1842 35.938 21.8767C35.938 17.5693 32.4331 14.0646 28.1259 14.0646Z" fill="url(#paint16_linear_341_154)"></path><path d="M25.7821 28.1264C25.6276 28.1264 25.4766 28.0805 25.3481 27.9947C25.2197 27.9088 25.1196 27.7868 25.0604 27.6441C25.0013 27.5014 24.9858 27.3443 25.016 27.1928C25.0461 27.0412 25.1205 26.9021 25.2297 26.7928L30.6983 21.3242C30.8458 21.183 31.0428 21.1052 31.247 21.1075C31.4513 21.1097 31.6465 21.1919 31.7909 21.3363C31.9353 21.4807 32.0174 21.676 32.0196 21.8802C32.0218 22.0844 31.944 22.2814 31.8028 22.4289L26.3344 27.8973C26.262 27.97 26.1759 28.0277 26.0811 28.067C25.9863 28.1064 25.8847 28.1265 25.7821 28.1264Z" fill="url(#paint17_linear_341_154)"></path><path d="M33.5943 25.0016C33.4917 25.0017 33.39 24.9815 33.2952 24.9422C33.2005 24.9029 33.1144 24.8453 33.0419 24.7727L30.6984 22.4291C30.5571 22.2816 30.4793 22.0846 30.4815 21.8804C30.4837 21.6761 30.5658 21.4809 30.7102 21.3365C30.8546 21.192 31.0499 21.1099 31.2541 21.1077C31.4583 21.1054 31.6553 21.1832 31.8029 21.3244L34.1466 23.6682C34.2558 23.7774 34.3301 23.9166 34.3602 24.0681C34.3903 24.2196 34.3748 24.3766 34.3157 24.5193C34.2566 24.662 34.1565 24.784 34.0281 24.8698C33.8997 24.9557 33.7487 25.0015 33.5943 25.0016Z" fill="url(#paint18_linear_341_154)"></path><path d="M22.6575 25.0015C22.5031 25.0015 22.352 24.9557 22.2236 24.8698C22.0952 24.784 21.995 24.662 21.9359 24.5192C21.8768 24.3765 21.8613 24.2195 21.8915 24.0679C21.9216 23.9164 21.996 23.7772 22.1052 23.6679L23.6677 22.1054C23.7398 22.0308 23.826 21.9713 23.9213 21.9304C24.0166 21.8894 24.1191 21.8679 24.2229 21.867C24.3266 21.8661 24.4295 21.8858 24.5255 21.9251C24.6215 21.9644 24.7087 22.0224 24.7821 22.0958C24.8554 22.1691 24.9134 22.2563 24.9527 22.3524C24.992 22.4484 25.0118 22.5512 25.0109 22.655C25.01 22.7587 24.9884 22.8612 24.9475 22.9565C24.9065 23.0519 24.847 23.1381 24.7724 23.2101L23.2099 24.7726C23.1374 24.8453 23.0514 24.9029 22.9566 24.9422C22.8618 24.9815 22.7602 25.0017 22.6575 25.0015Z" fill="url(#paint19_linear_341_154)"></path><path d="M25.7821 25.0015C25.6795 25.0016 25.5778 24.9815 25.4831 24.9422C25.3883 24.9029 25.3022 24.8453 25.2297 24.7726L23.6672 23.2101C23.5926 23.1381 23.5331 23.0519 23.4921 22.9565C23.4512 22.8612 23.4296 22.7587 23.4287 22.655C23.4278 22.5512 23.4476 22.4484 23.4869 22.3524C23.5262 22.2563 23.5842 22.1691 23.6575 22.0958C23.7309 22.0224 23.8181 21.9644 23.9141 21.9251C24.0101 21.8858 24.113 21.8661 24.2167 21.867C24.3205 21.8679 24.423 21.8894 24.5183 21.9304C24.6136 21.9713 24.6998 22.0308 24.7719 22.1054L26.3344 23.6679C26.4436 23.7772 26.518 23.9164 26.5481 24.0679C26.5783 24.2195 26.5628 24.3765 26.5037 24.5192C26.4446 24.662 26.3445 24.784 26.216 24.8698C26.0876 24.9557 25.9366 25.0015 25.7821 25.0015Z" fill="url(#paint20_linear_341_154)"></path><path d="M25.782 20.3143C24.4898 20.3143 23.4385 19.2631 23.4385 17.9705C23.4385 16.6783 24.4898 15.627 25.782 15.627C27.0744 15.627 28.1258 16.6783 28.1258 17.9705C28.1258 19.2631 27.0746 20.3143 25.782 20.3143ZM25.782 17.1895C25.351 17.1895 25.0008 17.5404 25.0008 17.9707C25.0008 18.401 25.351 18.752 25.782 18.752C26.2131 18.752 26.5633 18.401 26.5633 17.9707C26.5633 17.5404 26.2131 17.1895 25.782 17.1895Z" fill="url(#paint21_linear_341_154)"></path><path d="M7.0332 96.8721C6.60156 96.8721 6.25195 96.5227 6.25195 96.0908V3.90918C6.25195 3.47734 6.60137 3.12793 7.0332 3.12793C7.46504 3.12793 7.81445 3.47734 7.81445 3.90918V96.091C7.8145 96.1936 7.79433 96.2952 7.75508 96.39C7.71584 96.4848 7.65829 96.571 7.58573 96.6435C7.51317 96.716 7.42703 96.7736 7.33222 96.8128C7.23741 96.852 7.1358 96.8721 7.0332 96.8721Z" fill="url(#paint22_linear_341_154)"></path><path d="M74.2168 96.8721H7.0332C6.60156 96.8721 6.25195 96.5227 6.25195 96.0909C6.2519 95.9883 6.27208 95.8867 6.31132 95.7919C6.35057 95.6971 6.40811 95.6109 6.48067 95.5384C6.55323 95.4659 6.63938 95.4083 6.73419 95.3691C6.82899 95.3299 6.9306 95.3097 7.0332 95.3098H74.2168C74.3194 95.3098 74.421 95.3299 74.5158 95.3692C74.6105 95.4084 74.6967 95.4659 74.7692 95.5385C74.8417 95.611 74.8993 95.6971 74.9385 95.7919C74.9777 95.8867 74.9979 95.9883 74.9978 96.0909C74.9978 96.5227 74.6484 96.8721 74.2168 96.8721Z" fill="url(#paint23_linear_341_154)"></path><path d="M71.0923 99.9968H3.90869C3.47705 99.9968 3.12744 99.6474 3.12744 99.2156C3.12744 98.7837 3.47686 98.4343 3.90869 98.4343H71.0923C71.5241 98.4343 71.8735 98.7837 71.8735 99.2156C71.8735 99.6474 71.5241 99.9968 71.0923 99.9968Z" fill="url(#paint24_linear_341_154)"></path><path d="M3.90869 99.9969C3.47705 99.9969 3.12744 99.6475 3.12744 99.2156V7.034C3.12744 6.60216 3.47686 6.25275 3.90869 6.25275C4.34053 6.25275 4.68994 6.60216 4.68994 7.034V99.2158C4.68999 99.3184 4.66982 99.42 4.63057 99.5148C4.59133 99.6096 4.53378 99.6958 4.46122 99.7683C4.38866 99.8408 4.30252 99.8984 4.20771 99.9376C4.1129 99.9768 4.01129 99.997 3.90869 99.9969Z" fill="url(#paint25_linear_341_154)"></path><defs><linearGradient id="paint0_linear_341_154" x1="57.0306" y1="81.248" x2="57.0306" y2="82.8105" gradientUnits="userSpaceOnUse"><stop stop-color="#FF7926"></stop><stop offset="1" stop-color="#EE9D00"></stop></linearGradient><linearGradient id="paint1_linear_341_154" x1="70.3109" y1="74.8993" x2="70.3109" y2="90.6224" gradientUnits="userSpaceOnUse"><stop stop-color="#FF7926"></stop><stop offset="1" stop-color="#EE9D00"></stop></linearGradient><linearGradient id="paint2_linear_341_154" x1="91.4034" y1="65.624" x2="91.4034" y2="90.6225" gradientUnits="userSpaceOnUse"><stop stop-color="#FF7926"></stop><stop offset="1" stop-color="#EE9D00"></stop></linearGradient><linearGradient id="paint3_linear_341_154" x1="91.4036" y1="26.5626" x2="91.4036" y2="67.1863" gradientUnits="userSpaceOnUse"><stop stop-color="#FF7926"></stop><stop offset="1" stop-color="#EE9D00"></stop></linearGradient><linearGradient id="paint4_linear_341_154" x1="91.4035" y1="20.3143" x2="91.4035" y2="28.1264" gradientUnits="userSpaceOnUse"><stop stop-color="#FF7926"></stop><stop offset="1" stop-color="#EE9D00"></stop></linearGradient><linearGradient id="paint5_linear_341_154" x1="91.4031" y1="20.3143" x2="91.4031" y2="70.3113" gradientUnits="userSpaceOnUse"><stop stop-color="#FF7926"></stop><stop offset="1" stop-color="#EE9D00"></stop></linearGradient><linearGradient id="paint6_linear_341_154" x1="91.4031" y1="65.624" x2="91.4031" y2="79.6855" gradientUnits="userSpaceOnUse"><stop stop-color="#FF7926"></stop><stop offset="1" stop-color="#EE9D00"></stop></linearGradient><linearGradient id="paint7_linear_341_154" x1="85.935" y1="9.37756" x2="85.935" y2="93.7473" gradientUnits="userSpaceOnUse"><stop stop-color="#FF7926"></stop><stop offset="1" stop-color="#EE9D00"></stop></linearGradient><linearGradient id="paint8_linear_341_154" x1="43.75" y1="92.1848" x2="43.75" y2="93.7473" gradientUnits="userSpaceOnUse"><stop stop-color="#FF7926"></stop><stop offset="1" stop-color="#EE9D00"></stop></linearGradient><linearGradient id="paint9_linear_341_154" x1="10.1582" y1="0.00311279" x2="10.1582" y2="93.7473" gradientUnits="userSpaceOnUse"><stop stop-color="#FF7926"></stop><stop offset="1" stop-color="#EE9D00"></stop></linearGradient><linearGradient id="paint10_linear_341_154" x1="39.0627" y1="0.00292969" x2="39.0627" y2="1.56543" gradientUnits="userSpaceOnUse"><stop stop-color="#FF7926"></stop><stop offset="1" stop-color="#EE9D00"></stop></linearGradient><linearGradient id="paint11_linear_341_154" x1="71.8736" y1="0.0150146" x2="71.8736" y2="12.5023" gradientUnits="userSpaceOnUse"><stop stop-color="#FF7926"></stop><stop offset="1" stop-color="#EE9D00"></stop></linearGradient><linearGradient id="paint12_linear_341_154" x1="46.8748" y1="10.9398" x2="46.8748" y2="48.4375" gradientUnits="userSpaceOnUse"><stop stop-color="#FF7926"></stop><stop offset="1" stop-color="#EE9D00"></stop></linearGradient><linearGradient id="paint13_linear_341_154" x1="43.75" y1="53.1248" x2="43.75" y2="54.6871" gradientUnits="userSpaceOnUse"><stop stop-color="#FF7926"></stop><stop offset="1" stop-color="#EE9D00"></stop></linearGradient><linearGradient id="paint14_linear_341_154" x1="43.75" y1="59.3744" x2="43.75" y2="60.9367" gradientUnits="userSpaceOnUse"><stop stop-color="#FF7926"></stop><stop offset="1" stop-color="#EE9D00"></stop></linearGradient><linearGradient id="paint15_linear_341_154" x1="32.032" y1="65.624" x2="32.032" y2="67.1863" gradientUnits="userSpaceOnUse"><stop stop-color="#FF7926"></stop><stop offset="1" stop-color="#EE9D00"></stop></linearGradient><linearGradient id="paint16_linear_341_154" x1="28.1259" y1="12.5023" x2="28.1259" y2="31.2511" gradientUnits="userSpaceOnUse"><stop stop-color="#FF7926"></stop><stop offset="1" stop-color="#EE9D00"></stop></linearGradient><linearGradient id="paint17_linear_341_154" x1="28.5103" y1="21.1074" x2="28.5103" y2="28.1264" gradientUnits="userSpaceOnUse"><stop stop-color="#FF7926"></stop><stop offset="1" stop-color="#EE9D00"></stop></linearGradient><linearGradient id="paint18_linear_341_154" x1="32.4283" y1="21.1076" x2="32.4283" y2="25.0016" gradientUnits="userSpaceOnUse"><stop stop-color="#FF7926"></stop><stop offset="1" stop-color="#EE9D00"></stop></linearGradient><linearGradient id="paint19_linear_341_154" x1="23.4437" y1="21.8669" x2="23.4437" y2="25.0015" gradientUnits="userSpaceOnUse"><stop stop-color="#FF7926"></stop><stop offset="1" stop-color="#EE9D00"></stop></linearGradient><linearGradient id="paint20_linear_341_154" x1="24.9959" y1="21.8669" x2="24.9959" y2="25.0015" gradientUnits="userSpaceOnUse"><stop stop-color="#FF7926"></stop><stop offset="1" stop-color="#EE9D00"></stop></linearGradient><linearGradient id="paint21_linear_341_154" x1="25.7821" y1="15.627" x2="25.7821" y2="20.3143" gradientUnits="userSpaceOnUse"><stop stop-color="#FF7926"></stop><stop offset="1" stop-color="#EE9D00"></stop></linearGradient><linearGradient id="paint22_linear_341_154" x1="7.0332" y1="3.12793" x2="7.0332" y2="96.8721" gradientUnits="userSpaceOnUse"><stop stop-color="#FF7926"></stop><stop offset="1" stop-color="#EE9D00"></stop></linearGradient><linearGradient id="paint23_linear_341_154" x1="40.6249" y1="95.3098" x2="40.6249" y2="96.8721" gradientUnits="userSpaceOnUse"><stop stop-color="#FF7926"></stop><stop offset="1" stop-color="#EE9D00"></stop></linearGradient><linearGradient id="paint24_linear_341_154" x1="37.5005" y1="98.4343" x2="37.5005" y2="99.9968" gradientUnits="userSpaceOnUse"><stop stop-color="#FF7926"></stop><stop offset="1" stop-color="#EE9D00"></stop></linearGradient><linearGradient id="paint25_linear_341_154" x1="3.90869" y1="6.25275" x2="3.90869" y2="99.9969" gradientUnits="userSpaceOnUse"><stop stop-color="#FF7926"></stop><stop offset="1" stop-color="#EE9D00"></stop></linearGradient></defs></svg>