<svg xmlns="http://www.w3.org/2000/svg" width="100" height="100" viewBox="0 0 100 100" fill="none"><path d="M91.5077 94.5256H8.70576C4.829 94.5256 1.67529 91.3721 1.67529 87.4951V53.1246C1.67529 52.6928 2.02471 52.3434 2.45654 52.3434C2.88838 52.3434 3.23779 52.6928 3.23779 53.1246V87.4951C3.23779 90.51 5.69111 92.9631 8.70596 92.9631H91.5077C94.5226 92.9631 96.9757 90.5098 96.9757 87.4951V53.1246C96.9757 52.6928 97.3251 52.3434 97.7567 52.3434C98.1886 52.3434 98.538 52.6928 98.538 53.1246V87.4951C98.538 91.3719 95.3843 94.5256 91.5077 94.5256Z" fill="#F4900F"></path><path d="M88.7824 91.401H85.658C85.2277 91.401 84.8768 91.0516 84.8768 90.6198C84.8768 90.1879 85.2277 89.8387 85.658 89.8387H88.7824C89.2158 89.8387 89.5637 90.1879 89.5637 90.6198C89.5637 91.0516 89.2158 91.401 88.7824 91.401ZM82.5334 91.401H79.4088C78.9785 91.401 78.6275 91.0516 78.6275 90.6198C78.6275 90.1879 78.9785 89.8387 79.4088 89.8387H82.5334C82.9666 89.8387 83.3145 90.1879 83.3145 90.6198C83.3145 91.0516 82.9666 91.401 82.5334 91.401ZM76.2842 91.401H73.1596C72.7293 91.401 72.3783 91.0516 72.3783 90.6198C72.3783 90.1879 72.7293 89.8387 73.1596 89.8387H76.2842C76.7176 89.8387 77.0652 90.1879 77.0652 90.6198C77.0652 91.0516 76.7176 91.401 76.2842 91.401ZM70.035 91.401H66.9104C66.4801 91.401 66.1293 91.0516 66.1293 90.6198C66.1293 90.1879 66.4801 89.8387 66.9104 89.8387H70.035C70.4684 89.8387 70.8162 90.1879 70.8162 90.6198C70.8162 91.0516 70.4684 91.401 70.035 91.401ZM63.7857 91.401H60.6611C60.2311 91.401 59.8801 91.0516 59.8801 90.6198C59.8801 90.1879 60.2311 89.8387 60.6611 89.8387H63.7857C64.2191 89.8387 64.567 90.1879 64.567 90.6198C64.567 91.0516 64.2191 91.401 63.7857 91.401ZM57.5365 91.401H54.4121C53.9818 91.401 53.6309 91.0516 53.6309 90.6198C53.6309 90.1879 53.9818 89.8387 54.4121 89.8387H57.5365C57.9699 89.8387 58.3178 90.1879 58.3178 90.6198C58.3178 91.0516 57.9699 91.401 57.5365 91.401ZM51.2883 91.401H48.1637C47.7318 91.401 47.3824 91.0516 47.3824 90.6198C47.3824 90.1879 47.7318 89.8387 48.1637 89.8387H51.2883C51.7207 89.8387 52.0686 90.1879 52.0686 90.6198C52.0686 91.0516 51.7207 91.401 51.2883 91.401ZM45.0391 91.401H41.9145C41.4828 91.401 41.1334 91.0516 41.1334 90.6198C41.1334 90.1879 41.4828 89.8387 41.9145 89.8387H45.0391C45.4709 89.8387 45.8203 90.1879 45.8203 90.6198C45.8203 91.0516 45.4709 91.401 45.0391 91.401ZM38.7896 91.401H35.665C35.2334 91.401 34.8838 91.0516 34.8838 90.6198C34.8838 90.1879 35.2332 89.8387 35.665 89.8387H38.7896C39.2215 89.8387 39.5709 90.1879 39.5709 90.6198C39.5709 91.0516 39.2215 91.401 38.7896 91.401ZM32.5406 91.401H29.416C28.9842 91.401 28.6348 91.0516 28.6348 90.6198C28.6348 90.1879 28.9842 89.8387 29.416 89.8387H32.5406C32.9723 89.8387 33.3219 90.1879 33.3219 90.6198C33.3219 91.0516 32.9723 91.401 32.5406 91.401ZM26.2914 91.401H23.1668C22.735 91.401 22.3855 91.0516 22.3855 90.6198C22.3855 90.1879 22.735 89.8387 23.1668 89.8387H26.2914C26.723 89.8387 27.0725 90.1879 27.0725 90.6198C27.0725 91.0516 26.7232 91.401 26.2914 91.401ZM20.0422 91.401H16.9176C16.4859 91.401 16.1365 91.0516 16.1365 90.6198C16.1365 90.1879 16.4859 89.8387 16.9176 89.8387H20.0422C20.474 89.8387 20.8234 90.1879 20.8234 90.6198C20.8234 91.0516 20.474 91.401 20.0422 91.401ZM13.793 91.401H10.6686C10.2369 91.401 9.8873 91.0516 9.8873 90.6198C9.8873 90.1879 10.2367 89.8387 10.6686 89.8387H13.7932C14.225 89.8387 14.5744 90.1879 14.5744 90.6198C14.5744 91.0516 14.2248 91.401 13.793 91.401ZM91.8506 90.9951C91.6998 90.9954 91.5523 90.9518 91.4258 90.8697C91.2994 90.7877 91.1995 90.6706 91.1383 90.5328C91.0962 90.4393 91.0729 90.3383 91.0698 90.2358C91.0668 90.1332 91.0839 90.0311 91.1203 89.9352C91.1568 89.8392 91.2117 89.7514 91.2821 89.6768C91.3525 89.6021 91.4369 89.5421 91.5305 89.5C92.3296 89.1392 92.9867 88.5238 93.3992 87.75C93.6006 87.367 94.0736 87.225 94.4551 87.425C94.5458 87.4732 94.6261 87.5388 94.6914 87.618C94.7567 87.6972 94.8058 87.7886 94.8358 87.8868C94.8658 87.985 94.8762 88.0881 94.8663 88.1903C94.8565 88.2925 94.8266 88.3918 94.7783 88.4824C94.2039 89.5636 93.2861 90.4229 92.1695 90.925C92.0695 90.9709 91.9607 90.9948 91.8506 90.9951ZM7.69727 90.6289C7.54452 90.6285 7.39525 90.5834 7.26777 90.4992C6.2452 89.8235 5.47651 88.8268 5.08281 87.666C5.05012 87.5688 5.03692 87.4661 5.04398 87.3638C5.05103 87.2614 5.07818 87.1615 5.1239 87.0697C5.16961 86.9778 5.23299 86.8959 5.31039 86.8286C5.3878 86.7613 5.47771 86.7099 5.575 86.6774C5.98398 86.543 6.42715 86.7614 6.56426 87.1686C6.84121 87.9926 7.39668 88.7127 8.12813 89.1948C8.30106 89.3091 8.42156 89.4873 8.4632 89.6904C8.50483 89.8935 8.46419 90.1048 8.3502 90.278C8.27868 90.3857 8.18166 90.4741 8.06776 90.5354C7.95385 90.5966 7.82659 90.6287 7.69727 90.6289ZM94.6322 85.8625C94.2004 85.8625 93.851 85.5117 93.851 85.0815V81.9569C93.851 81.5235 94.2004 81.1756 94.6322 81.1756C94.7349 81.1754 94.8365 81.1955 94.9314 81.2347C95.0262 81.2739 95.1124 81.3315 95.185 81.404C95.2576 81.4766 95.3151 81.5628 95.3542 81.6577C95.3934 81.7526 95.4135 81.8542 95.4133 81.9569V85.0815C95.4131 85.2886 95.3308 85.4871 95.1843 85.6336C95.0379 85.78 94.8393 85.8624 94.6322 85.8625ZM5.58105 85.1014C5.14922 85.1014 4.7998 84.752 4.7998 84.3201V81.1955C4.7998 80.7639 5.14922 80.4145 5.58105 80.4145C6.01289 80.4145 6.3623 80.7639 6.3623 81.1955V84.3201C6.3623 84.752 6.01289 85.1014 5.58105 85.1014ZM94.6322 79.6135C94.2004 79.6135 93.851 79.2625 93.851 78.8323V75.7076C93.8508 75.605 93.8709 75.5033 93.9101 75.4085C93.9493 75.3136 94.0068 75.2275 94.0794 75.1549C94.152 75.0823 94.2382 75.0248 94.3331 74.9856C94.4279 74.9464 94.5296 74.9264 94.6322 74.9266C95.0639 74.9266 95.4133 75.2742 95.4133 75.7076V78.8323C95.4133 79.2625 95.0639 79.6135 94.6322 79.6135ZM5.58105 78.8522C5.14922 78.8522 4.7998 78.5028 4.7998 78.0711V74.9465C4.7998 74.5147 5.14922 74.1653 5.58105 74.1653C6.01289 74.1653 6.3623 74.5147 6.3623 74.9465V78.0711C6.36236 78.1737 6.34218 78.2753 6.30294 78.3701C6.26369 78.4649 6.20614 78.5511 6.13358 78.6236C6.06103 78.6961 5.97488 78.7537 5.88007 78.7929C5.78526 78.8321 5.68366 78.8523 5.58105 78.8522ZM94.6322 73.3643C94.2004 73.3643 93.851 73.0133 93.851 72.583V69.4584C93.8508 69.3558 93.8709 69.2541 93.9101 69.1593C93.9493 69.0644 94.0068 68.9782 94.0794 68.9057C94.152 68.8331 94.2382 68.7756 94.3331 68.7364C94.4279 68.6972 94.5296 68.6772 94.6322 68.6774C94.7348 68.6772 94.8365 68.6973 94.9313 68.7365C95.0262 68.7756 95.1124 68.8332 95.1849 68.9057C95.2575 68.9783 95.315 69.0645 95.3542 69.1593C95.3934 69.2542 95.4135 69.3558 95.4133 69.4584V72.583C95.4133 73.0133 95.0639 73.3643 94.6322 73.3643ZM5.58105 72.603C5.14922 72.603 4.7998 72.2535 4.7998 71.8219V68.6973C4.7998 68.2655 5.14922 67.9162 5.58105 67.9162C6.01289 67.9162 6.3623 68.2655 6.3623 68.6973V71.8219C6.36236 71.9245 6.34218 72.0261 6.30294 72.1209C6.26369 72.2157 6.20614 72.3018 6.13358 72.3744C6.06103 72.4469 5.97488 72.5044 5.88007 72.5437C5.78526 72.5829 5.68366 72.603 5.58105 72.603ZM94.6322 67.1151C94.2004 67.1151 93.851 66.7641 93.851 66.334V63.2094C93.851 62.776 94.2004 62.4282 94.6322 62.4282C94.7349 62.428 94.8365 62.4481 94.9314 62.4873C95.0262 62.5265 95.1124 62.584 95.185 62.6566C95.2576 62.7292 95.3151 62.8154 95.3542 62.9102C95.3934 63.0051 95.4135 63.1068 95.4133 63.2094V66.334C95.4131 66.5411 95.3308 66.7397 95.1843 66.8861C95.0379 67.0326 94.8393 67.1149 94.6322 67.1151ZM5.58105 66.3537C5.14922 66.3537 4.7998 66.0043 4.7998 65.5725V62.4479C4.7998 62.0162 5.14922 61.6668 5.58105 61.6668C6.01289 61.6668 6.3623 62.0162 6.3623 62.4479V65.5725C6.3623 66.0043 6.01289 66.3537 5.58105 66.3537ZM94.6322 60.8658C94.2004 60.8658 93.851 60.5149 93.851 60.0848V56.9602C93.8508 56.8575 93.8709 56.7559 93.9101 56.661C93.9493 56.5662 94.0068 56.48 94.0794 56.4074C94.152 56.3349 94.2382 56.2773 94.3331 56.2382C94.4279 56.199 94.5296 56.1789 94.6322 56.1791C95.0639 56.1791 95.4133 56.5268 95.4133 56.9602V60.0848C95.4131 60.2919 95.3308 60.4905 95.1843 60.6369C95.0379 60.7834 94.8393 60.8657 94.6322 60.8658ZM5.58105 60.1045C5.14922 60.1045 4.7998 59.7551 4.7998 59.3235V56.1989C4.7998 55.767 5.14922 55.4176 5.58105 55.4176C6.01289 55.4176 6.3623 55.767 6.3623 56.1989V59.3235C6.36236 59.4261 6.34218 59.5277 6.30294 59.6225C6.26369 59.7173 6.20614 59.8034 6.13358 59.8759C6.06103 59.9485 5.97488 60.006 5.88007 60.0452C5.78526 60.0844 5.68366 60.1046 5.58105 60.1045ZM55.4678 69.5285H44.5316C44.1 69.5285 43.7504 69.1793 43.7504 68.7475V53.1246C43.7504 52.6928 44.0998 52.3434 44.5316 52.3434H55.4678C55.8996 52.3434 56.249 52.6928 56.249 53.1246V68.7475C56.2491 68.8501 56.2289 68.9517 56.1897 69.0465C56.1504 69.1413 56.0929 69.2274 56.0203 69.3C55.9477 69.3725 55.8616 69.43 55.7668 69.4692C55.672 69.5085 55.5704 69.5286 55.4678 69.5285ZM45.3129 67.9664H54.6865V53.9057H45.3129V67.9664Z" fill="#F4900F"></path><path d="M49.9998 64.8418C48.7076 64.8418 47.6562 63.7905 47.6562 62.4983C47.6562 61.2061 48.7076 60.1549 49.9998 60.1549C51.292 60.1549 52.3432 61.2061 52.3432 62.4983C52.3432 63.7905 51.292 64.8418 49.9998 64.8418ZM49.9998 61.7172C49.5687 61.7172 49.2186 62.0682 49.2186 62.4983C49.2186 62.9285 49.5687 63.2795 49.9998 63.2795C50.4309 63.2795 50.7809 62.9285 50.7809 62.4983C50.7806 62.2912 50.6982 62.0927 50.5518 61.9463C50.4054 61.7998 50.2069 61.7175 49.9998 61.7172Z" fill="#F4900F"></path><path d="M49.9999 66.4039C49.5681 66.4039 49.2187 66.0547 49.2187 65.6229V64.0606C49.2187 63.6287 49.5681 63.2795 49.9999 63.2795C50.4317 63.2795 50.781 63.6287 50.781 64.0606V65.6229C50.781 65.7255 50.7609 65.8271 50.7217 65.9219C50.6824 66.0167 50.6249 66.1028 50.5524 66.1753C50.4798 66.2479 50.3937 66.3054 50.2989 66.3446C50.2041 66.3839 50.1025 66.404 49.9999 66.4039ZM55.4679 58.6186H44.5317C44.1001 58.6186 43.7505 58.2692 43.7505 57.8373C43.7504 57.7347 43.7706 57.6331 43.8099 57.5383C43.8491 57.4435 43.9066 57.3574 43.9792 57.2849C44.0518 57.2123 44.1379 57.1548 44.2327 57.1156C44.3275 57.0763 44.4291 57.0562 44.5317 57.0563H55.4679C55.8997 57.0563 56.2491 57.4057 56.2491 57.8373C56.2491 58.2692 55.8997 58.6186 55.4679 58.6186Z" fill="#F4900F"></path><path d="M39.845 58.3195C39.829 58.3195 39.813 58.318 39.797 58.318C13.3173 56.7221 0.900293 49.4172 0.384668 49.1066C0.269215 49.0373 0.173688 48.9392 0.107389 48.822C0.0410908 48.7048 0.00628023 48.5724 0.00634775 48.4377V26.5656C0.00634775 21.8275 3.86084 17.9728 8.59893 17.9728H91.4007C96.1394 17.9728 99.9933 21.8275 99.9933 26.5656V48.4377C99.9933 48.5724 99.9585 48.7048 99.8921 48.822C99.8258 48.9393 99.7302 49.0373 99.6148 49.1066C99.0989 49.4172 86.6831 56.7221 60.2019 58.318C59.7913 58.3363 59.4007 58.0158 59.3749 57.5855C59.3625 57.3788 59.4327 57.1756 59.57 57.0206C59.7074 56.8656 59.9006 56.7714 60.1073 56.7588C83.6593 55.3398 96.1575 49.199 98.431 47.9785V26.5656C98.431 22.6887 95.2774 19.5351 91.4007 19.5351H8.59893C4.72217 19.5351 1.56865 22.6887 1.56865 26.5656V47.9785C3.84111 49.199 16.3403 55.3398 39.8913 56.7588C39.9951 56.7599 40.0977 56.7816 40.193 56.8228C40.2882 56.864 40.3744 56.9237 40.4463 56.9986C40.5182 57.0735 40.5745 57.1619 40.6118 57.2588C40.6492 57.3556 40.6668 57.459 40.6637 57.5627C40.6607 57.6665 40.6369 57.7686 40.5939 57.8631C40.5509 57.9576 40.4895 58.0425 40.4132 58.113C40.337 58.1835 40.2475 58.238 40.1499 58.2735C40.0524 58.3089 39.9487 58.3246 39.845 58.3195Z" fill="#F4900F"></path><path d="M52.3432 54.6867H47.6562C47.5537 54.6868 47.4521 54.6666 47.3573 54.6274C47.2625 54.5882 47.1764 54.5306 47.1038 54.4581C47.0313 54.3855 46.9738 54.2994 46.9345 54.2046C46.8953 54.1098 46.8751 54.0083 46.8752 53.9057C46.8751 53.8031 46.8953 53.7015 46.9345 53.6067C46.9738 53.5119 47.0313 53.4258 47.1038 53.3533C47.1764 53.2807 47.2625 53.2232 47.3573 53.184C47.4521 53.1447 47.5537 53.1246 47.6562 53.1246H52.3432C52.775 53.1246 53.1244 53.474 53.1244 53.9057C53.1245 54.0083 53.1043 54.1099 53.065 54.2047C53.0258 54.2995 52.9683 54.3856 52.8957 54.4581C52.8231 54.5307 52.737 54.5882 52.6422 54.6274C52.5474 54.6667 52.4458 54.6868 52.3432 54.6867ZM55.4678 51.5623C55.0359 51.5623 54.6865 51.2129 54.6865 50.7811C54.6865 48.1967 52.5842 46.0942 49.9998 46.0942C47.4152 46.0942 45.3129 48.1965 45.3129 50.7811C45.3129 51.2129 44.9635 51.5623 44.5316 51.5623C44.0998 51.5623 43.7504 51.2129 43.7504 50.7811C43.7504 47.3354 46.5539 44.5318 49.9996 44.5318C53.4447 44.5318 56.2488 47.3354 56.2488 50.7811C56.2489 50.8837 56.2288 50.9853 56.1896 51.0801C56.1504 51.1749 56.0928 51.2611 56.0203 51.3337C55.9478 51.4062 55.8616 51.4638 55.7668 51.503C55.672 51.5422 55.5704 51.5624 55.4678 51.5623ZM3.91191 46.0942C3.80931 46.0942 3.70771 46.074 3.61291 46.0348C3.51811 45.9955 3.43198 45.938 3.35944 45.8654C3.2869 45.7929 3.22938 45.7067 3.19015 45.6119C3.15093 45.5171 3.13078 45.4155 3.13086 45.3129V43.7506C3.13086 43.3188 3.48027 42.9693 3.91191 42.9693C4.34375 42.9693 4.69316 43.3188 4.69316 43.7506V45.3129C4.69316 45.7449 4.34375 46.0942 3.91191 46.0942ZM3.91191 41.0945C3.80931 41.0946 3.70771 41.0744 3.61291 41.0352C3.51811 40.9959 3.43198 40.9384 3.35944 40.8658C3.2869 40.7933 3.22938 40.7071 3.19015 40.6123C3.15093 40.5175 3.13078 40.4159 3.13086 40.3133V36.876C3.13086 36.4442 3.48027 36.0947 3.91191 36.0947C4.34375 36.0947 4.69316 36.4442 4.69316 36.876V40.3133C4.69316 40.7451 4.34375 41.0945 3.91191 41.0945ZM3.91191 34.2205C3.80931 34.2206 3.70771 34.2004 3.61291 34.1612C3.51811 34.1219 3.43198 34.0644 3.35944 33.9918C3.2869 33.9192 3.22938 33.8331 3.19015 33.7383C3.15093 33.6435 3.13078 33.5419 3.13086 33.4393V30.0018C3.13081 29.8992 3.15098 29.7976 3.19021 29.7028C3.22944 29.608 3.28697 29.5219 3.35951 29.4494C3.43205 29.3768 3.51817 29.3193 3.61296 29.2801C3.70774 29.2408 3.80933 29.2207 3.91191 29.2207C4.34375 29.2207 4.69316 29.5701 4.69316 30.0018V33.4393C4.69316 33.8713 4.34375 34.2205 3.91191 34.2205ZM3.91191 27.3467C3.80933 27.3467 3.70774 27.3266 3.61296 27.2873C3.51817 27.2481 3.43205 27.1906 3.35951 27.118C3.28697 27.0455 3.22944 26.9594 3.19021 26.8646C3.15098 26.7698 3.13081 26.6682 3.13086 26.5656V25.0033C3.13086 24.5715 3.48027 24.2221 3.91191 24.2221C4.34375 24.2221 4.69316 24.5715 4.69316 25.0033V26.5656C4.69322 26.6682 4.67304 26.7698 4.6338 26.8646C4.59455 26.9594 4.537 27.0456 4.46444 27.1181C4.39189 27.1907 4.30574 27.2482 4.21093 27.2874C4.11612 27.3266 4.01451 27.3468 3.91191 27.3467ZM96.0875 46.0942C95.9849 46.0942 95.8833 46.074 95.7885 46.0348C95.6937 45.9955 95.6076 45.938 95.535 45.8654C95.4625 45.7929 95.405 45.7067 95.3657 45.6119C95.3265 45.5171 95.3064 45.4155 95.3064 45.3129V42.1883C95.3064 41.7565 95.6559 41.407 96.0875 41.407C96.5193 41.407 96.8687 41.7565 96.8687 42.1883V45.3129C96.8687 45.7449 96.5193 46.0942 96.0875 46.0942ZM96.0875 39.8451C95.9849 39.8452 95.8833 39.825 95.7885 39.7858C95.6937 39.7465 95.6076 39.689 95.535 39.6164C95.4625 39.5438 95.405 39.4577 95.3657 39.3629C95.3265 39.2681 95.3064 39.1665 95.3064 39.0639V35.9393C95.3064 35.8367 95.3266 35.7351 95.3658 35.6403C95.405 35.5455 95.4625 35.4594 95.5351 35.3869C95.6076 35.3143 95.6937 35.2568 95.7885 35.2176C95.8833 35.1783 95.9849 35.1582 96.0875 35.1582C96.5193 35.1582 96.8687 35.5076 96.8687 35.9393V39.0639C96.8687 39.4957 96.5193 39.8451 96.0875 39.8451ZM96.0875 33.5959C95.9849 33.596 95.8833 33.5758 95.7885 33.5365C95.6937 33.4973 95.6076 33.4397 95.535 33.3672C95.4625 33.2946 95.405 33.2085 95.3657 33.1137C95.3265 33.0189 95.3064 32.9173 95.3064 32.8147V29.6901C95.3064 29.2584 95.6559 28.9088 96.0875 28.9088C96.5193 28.9088 96.8687 29.2582 96.8687 29.6901V32.8147C96.8687 33.2465 96.5193 33.5959 96.0875 33.5959ZM96.0875 27.3467C95.9849 27.3467 95.8833 27.3266 95.7885 27.2873C95.6937 27.2481 95.6076 27.1906 95.5351 27.118C95.4625 27.0455 95.405 26.9594 95.3658 26.8646C95.3266 26.7698 95.3064 26.6682 95.3064 26.5656V25.0033C95.3064 24.5715 95.6559 24.2221 96.0875 24.2221C96.5193 24.2221 96.8687 24.5715 96.8687 25.0033V26.5656C96.8688 26.6682 96.8486 26.7698 96.8094 26.8646C96.7701 26.9594 96.7126 27.0456 96.64 27.1181C96.5675 27.1907 96.4813 27.2482 96.3865 27.2874C96.2917 27.3266 96.1901 27.3468 96.0875 27.3467ZM75.7775 24.2221H24.2219C24.1193 24.2221 24.0177 24.202 23.9229 24.1627C23.8281 24.1235 23.742 24.066 23.6695 23.9934C23.5969 23.9209 23.5394 23.8348 23.5002 23.74C23.4609 23.6452 23.4408 23.5436 23.4408 23.441C23.4408 23.0092 23.7902 22.6598 24.2219 22.6598H75.7777C75.9849 22.6598 76.1836 22.7421 76.3301 22.8886C76.4765 23.0352 76.5588 23.2339 76.5588 23.441C76.5588 23.6482 76.4764 23.8469 76.3299 23.9934C76.1834 24.1398 75.9847 24.2221 75.7775 24.2221ZM64.8416 13.286H35.158C34.7262 13.286 34.3768 12.9365 34.3768 12.5047V9.38009C34.3768 9.17657 34.4561 8.98126 34.598 8.83556C34.7316 8.69825 38.0035 5.47443 49.9998 5.47443C61.9961 5.47443 65.2687 8.69825 65.4014 8.83556C65.5433 8.98126 65.6227 9.17667 65.6227 9.38009V12.5047C65.6227 12.9365 65.2732 13.286 64.8416 13.286ZM35.9391 11.7236H64.0603V9.75099C63.1877 9.12697 59.5475 7.03693 49.9998 7.03693C40.4695 7.03693 36.8256 9.11954 35.9391 9.75255V11.7236Z" fill="#F4900F"></path><path d="M35.1582 16.4105C34.7264 16.4105 34.377 16.0611 34.377 15.6293V12.5047C34.3769 12.4021 34.3971 12.3005 34.4363 12.2057C34.4756 12.1109 34.5331 12.0248 34.6057 11.9522C34.6782 11.8797 34.7644 11.8221 34.8592 11.7829C34.954 11.7437 35.0556 11.7236 35.1582 11.7236C35.2608 11.7236 35.3624 11.7437 35.4572 11.783C35.5519 11.8222 35.6381 11.8797 35.7106 11.9523C35.7831 12.0248 35.8407 12.1109 35.8799 12.2057C35.9191 12.3005 35.9393 12.4021 35.9393 12.5047V15.6293C35.9393 16.0611 35.5898 16.4105 35.1582 16.4105ZM38.2828 16.4105C37.851 16.4105 37.5016 16.0611 37.5016 15.6293V12.5047C37.5015 12.4021 37.5217 12.3005 37.5609 12.2057C37.6002 12.1109 37.6577 12.0248 37.7303 11.9522C37.8028 11.8797 37.889 11.8221 37.9838 11.7829C38.0786 11.7437 38.1802 11.7236 38.2828 11.7236C38.3854 11.7236 38.487 11.7437 38.5818 11.783C38.6766 11.8222 38.7627 11.8797 38.8352 11.9523C38.9078 12.0248 38.9653 12.1109 39.0045 12.2057C39.0438 12.3005 39.0639 12.4021 39.0639 12.5047V15.6293C39.0639 16.0611 38.7145 16.4105 38.2828 16.4105Z" fill="#F4900F"></path><path d="M61.7173 16.4105C61.2854 16.4105 60.936 16.0611 60.936 15.6293V12.5047C60.936 12.073 61.2854 11.7236 61.7173 11.7236C62.1491 11.7236 62.4983 12.073 62.4983 12.5047V15.6293C62.4983 16.0611 62.1491 16.4105 61.7173 16.4105Z" fill="#F4900F"></path><path d="M64.8418 16.4105C64.41 16.4105 64.0605 16.0611 64.0605 15.6293V12.5047C64.0605 12.4021 64.0807 12.3005 64.1199 12.2057C64.1592 12.1109 64.2167 12.0248 64.2893 11.9522C64.3618 11.8797 64.448 11.8221 64.5428 11.7829C64.6376 11.7437 64.7392 11.7236 64.8418 11.7236C64.9444 11.7236 65.046 11.7437 65.1408 11.783C65.2355 11.8222 65.3217 11.8797 65.3942 11.9523C65.4667 12.0248 65.5243 12.1109 65.5635 12.2057C65.6027 12.3005 65.6229 12.4021 65.6229 12.5047V15.6293C65.6229 16.0611 65.2734 16.4105 64.8418 16.4105Z" fill="#F4900F"></path><path d="M53.9056 88.2764C53.803 88.2765 53.7014 88.2563 53.6066 88.217C53.5118 88.1778 53.4256 88.1203 53.3531 88.0477C53.2806 87.9751 53.223 87.889 53.1838 87.7942C53.1446 87.6994 53.1244 87.5978 53.1245 87.4952V84.3706C53.1245 84.268 53.1446 84.1664 53.1839 84.0716C53.2231 83.9768 53.2806 83.8907 53.3532 83.8182C53.4257 83.7456 53.5118 83.6881 53.6066 83.6489C53.7014 83.6096 53.803 83.5895 53.9056 83.5895C54.0082 83.5895 54.1097 83.6096 54.2045 83.6489C54.2993 83.6881 54.3854 83.7456 54.458 83.8182C54.5305 83.8907 54.588 83.9768 54.6273 84.0716C54.6665 84.1664 54.6867 84.268 54.6866 84.3706V87.4952C54.6866 87.927 54.3374 88.2764 53.9056 88.2764ZM53.9056 82.0272C53.803 82.0273 53.7014 82.0071 53.6066 81.9678C53.5118 81.9286 53.4256 81.871 53.3531 81.7985C53.2806 81.7259 53.223 81.6398 53.1838 81.545C53.1446 81.4502 53.1244 81.3485 53.1245 81.2459V78.1215C53.1245 77.6897 53.4739 77.3403 53.9056 77.3403C54.0082 77.3402 54.1098 77.3604 54.2046 77.3997C54.2994 77.4389 54.3855 77.4964 54.458 77.569C54.5306 77.6416 54.5881 77.7277 54.6273 77.8225C54.6666 77.9173 54.6867 78.0189 54.6866 78.1215V81.2459C54.6866 81.6776 54.3374 82.0272 53.9056 82.0272ZM53.9056 75.7778C53.803 75.7778 53.7014 75.7577 53.6066 75.7184C53.5118 75.6792 53.4257 75.6217 53.3532 75.5491C53.2806 75.4766 53.2231 75.3905 53.1839 75.2957C53.1446 75.2009 53.1245 75.0993 53.1245 74.9967V71.8721C53.1245 71.7695 53.1446 71.668 53.1839 71.5732C53.2231 71.4784 53.2806 71.3923 53.3532 71.3197C53.4257 71.2472 53.5118 71.1896 53.6066 71.1504C53.7014 71.1112 53.803 71.091 53.9056 71.0911C54.0082 71.091 54.1098 71.1111 54.2046 71.1504C54.2994 71.1896 54.3855 71.2471 54.458 71.3197C54.5306 71.3922 54.5881 71.4783 54.6273 71.5731C54.6665 71.6679 54.6867 71.7695 54.6866 71.8721V74.9967C54.6867 75.0993 54.6665 75.2009 54.6273 75.2957C54.588 75.3905 54.5305 75.4766 54.458 75.5491C54.3854 75.6217 54.2993 75.6792 54.2045 75.7184C54.1097 75.7577 54.0082 75.7778 53.9056 75.7778Z" fill="#F4900F"></path><path d="M46.0942 88.2764C45.6626 88.2764 45.313 87.927 45.313 87.4952V84.3706C45.313 83.9389 45.6624 83.5895 46.0942 83.5895C46.5261 83.5895 46.8755 83.9389 46.8755 84.3706V87.4952C46.8755 87.927 46.5261 88.2764 46.0942 88.2764ZM46.0942 82.0272C45.6626 82.0272 45.313 81.6778 45.313 81.2459V78.1215C45.313 77.6897 45.6624 77.3403 46.0942 77.3403C46.5261 77.3403 46.8755 77.6897 46.8755 78.1215V81.2459C46.8755 81.6776 46.5261 82.0272 46.0942 82.0272ZM46.0942 75.7778C45.6626 75.7778 45.313 75.4284 45.313 74.9967V71.8721C45.313 71.4403 45.6624 71.0911 46.0942 71.0911C46.5261 71.0911 46.8755 71.4403 46.8755 71.8721V74.9967C46.8755 75.0993 46.8554 75.2009 46.8161 75.2957C46.7769 75.3905 46.7193 75.4767 46.6468 75.5492C46.5742 75.6217 46.4881 75.6793 46.3933 75.7185C46.2984 75.7577 46.1968 75.7779 46.0942 75.7778Z" fill="#F4900F"></path><path d="M50 88.2763C49.5682 88.2763 49.2188 87.9269 49.2188 87.4951V71.8722C49.2188 71.4404 49.5682 71.0912 50 71.0912C50.4318 71.0912 50.7811 71.4404 50.7811 71.8722V87.4951C50.7811 87.9269 50.4318 88.2763 50 88.2763Z" fill="#F4900F"></path></svg>