<svg xmlns="http://www.w3.org/2000/svg" width="100" height="100" viewBox="0 0 100 100" fill="none"><g clip-path="url(#clip0_341_194)"><path d="M19.576 89.0575C19.1443 89.0575 18.7871 88.7082 18.7871 88.2764C18.7871 87.8446 19.1289 87.4951 19.5605 87.4951H19.5758C20.0074 87.4951 20.357 87.8446 20.357 88.2764C20.357 88.7082 20.0076 89.0575 19.576 89.0575ZM19.576 92.1821C19.1443 92.1821 18.7871 91.8326 18.7871 91.401C18.7871 90.9692 19.1289 90.6198 19.5605 90.6198H19.5758C20.0074 90.6198 20.357 90.9692 20.357 91.401C20.3571 91.5036 20.3369 91.6052 20.2977 91.7C20.2584 91.7948 20.2009 91.8809 20.1284 91.9534C20.0558 92.0259 19.9697 92.0835 19.8749 92.1227C19.7801 92.1619 19.6786 92.1821 19.576 92.1821ZM19.5287 95.3067H0.781055C0.678471 95.3067 0.576882 95.2866 0.482097 95.2473C0.387312 95.2081 0.301189 95.1506 0.228651 95.078C0.156113 95.0055 0.0985833 94.9194 0.0593498 94.8246C0.0201163 94.7298 -5.12456e-05 94.6282 9.77875e-08 94.5256V89.32C9.77875e-08 86.2746 1.61875 85.0741 4.41387 84.0287C5.34902 83.6795 7.83438 82.7504 9.81934 81.803C9.91173 81.7584 10.012 81.7326 10.1145 81.727C10.2169 81.7214 10.3194 81.7361 10.4161 81.7703C10.5128 81.8045 10.6018 81.8574 10.6779 81.9262C10.7541 81.9949 10.8159 82.078 10.8598 82.1707C10.9041 82.2633 10.9297 82.3637 10.9352 82.4661C10.9407 82.5686 10.9259 82.6711 10.8918 82.7679C10.8577 82.8646 10.8048 82.9537 10.7362 83.03C10.6677 83.1064 10.5847 83.1685 10.4922 83.2127C8.6584 84.0883 6.45664 84.9338 4.96172 85.4938C2.29316 86.4901 1.5625 87.3123 1.5625 89.3201V93.7446H19.5289C19.7361 93.7446 19.9347 93.8269 20.0812 93.9734C20.2276 94.1199 20.3099 94.3186 20.3099 94.5257C20.3098 94.7329 20.2275 94.9315 20.081 95.078C19.9345 95.2244 19.7359 95.3067 19.5287 95.3067Z" fill="url(#paint0_linear_341_194)"></path><path d="M38.2763 95.3066H19.5287C19.097 95.3066 18.7474 94.9572 18.7474 94.5256C18.7474 94.0937 19.0968 93.7443 19.5287 93.7443H37.4951V89.3199C37.4951 87.3121 36.7644 86.4898 34.0974 85.4935C32.6007 84.932 30.3976 84.0867 28.5623 83.208C28.4697 83.1637 28.3868 83.1016 28.3183 83.0253C28.2497 82.9489 28.197 82.8598 28.1629 82.763C28.1289 82.6662 28.1143 82.5636 28.12 82.4612C28.1257 82.3587 28.1515 82.2584 28.1961 82.166C28.3806 81.7769 28.849 81.6105 29.2367 81.7982C31.0172 82.6511 33.1759 83.4795 34.6451 84.0287C37.4402 85.074 39.0574 86.2746 39.0574 89.3199V94.5256C39.0574 94.6281 39.0373 94.7297 38.998 94.8245C38.9588 94.9193 38.9013 95.0054 38.8287 95.078C38.7562 95.1505 38.6701 95.208 38.5753 95.2473C38.4805 95.2865 38.3789 95.3067 38.2763 95.3066ZM19.5759 83.0217C15.1621 83.0217 7.85876 75.9959 7.85876 67.9892C7.85876 67.5574 8.20817 67.208 8.64001 67.208C8.74261 67.2079 8.84421 67.2281 8.93901 67.2674C9.03381 67.3066 9.11994 67.3641 9.19248 67.4367C9.26502 67.5093 9.32255 67.5954 9.36177 67.6902C9.40099 67.785 9.42114 67.8866 9.42106 67.9892C9.42106 74.9355 15.7572 81.4593 19.5761 81.4593C23.3965 81.4593 29.731 74.9357 29.731 67.9892C29.731 67.5574 30.0804 67.208 30.5123 67.208C30.9441 67.208 31.2935 67.5574 31.2935 67.9892C31.2931 75.9961 23.9912 83.0217 19.5759 83.0217ZM8.59254 67.1851C8.53004 67.1851 8.46598 67.1775 8.40172 67.1607C8.24516 67.1215 8.10461 67.0347 7.99943 66.9123C7.89425 66.7898 7.82961 66.6378 7.81442 66.4771C7.39938 62.0314 8.37126 58.4765 10.7072 55.9119C14.1476 52.1326 19.7269 51.3402 23.8006 51.3402C25.9273 51.3402 27.398 51.5615 27.4591 51.5715C27.6277 51.5976 27.7832 51.678 27.9019 51.8005C28.0206 51.9231 28.0961 52.081 28.1168 52.2504C28.1369 52.4201 28.101 52.5917 28.0145 52.7391C27.928 52.8865 27.7957 53.0016 27.6377 53.0668C25.9257 53.7701 26.0814 55.4254 26.2951 56.283C27.0929 56.3135 28.6965 56.5697 29.917 57.9976C31.4045 59.734 31.8484 62.6021 31.2367 66.5246C31.2125 66.6801 31.1418 66.8246 31.034 66.9392C30.9262 67.0539 30.7863 67.1333 30.6326 67.167C30.4789 67.2002 30.3188 67.1865 30.173 67.1278C30.0272 67.069 29.9025 66.9678 29.8148 66.8373L27.0365 62.6707C25.7947 63.1209 22.8134 64.0605 19.5759 64.0605C16.3279 64.0605 13.2826 63.1146 12.0238 62.666L9.24254 66.8371C9.17121 66.9441 9.07456 67.0319 8.96117 67.0926C8.84779 67.1533 8.72116 67.1851 8.59254 67.1851ZM27.34 60.9359C27.5949 60.9359 27.842 61.0611 27.99 61.2838L29.9185 64.175C30.0375 61.8332 29.6363 60.0693 28.73 59.0136C27.8574 57.9927 26.7101 57.8402 26.1045 57.8402C25.9519 57.8402 25.8543 57.851 25.8343 57.8539C25.4744 57.8935 25.1386 57.7013 25.006 57.3718C24.5742 56.3086 24.2797 54.3785 25.308 52.9412C24.8625 52.9183 24.3529 52.9015 23.8006 52.9015C20.0412 52.9015 14.9195 53.6062 11.8621 56.9629C10.2586 58.7236 9.39801 61.0654 9.2943 63.9427L11.0672 61.2836C11.1668 61.1327 11.3159 61.0212 11.4888 60.9683C11.6617 60.9154 11.8476 60.9244 12.0146 60.9937C12.0513 61.009 15.7297 62.498 19.5759 62.498C23.4191 62.498 27.0015 61.0121 27.0381 60.9967C27.1337 60.9566 27.2363 60.9359 27.34 60.9359Z" fill="url(#paint1_linear_341_194)"></path><path d="M30.5122 68.7703C30.0803 68.7703 29.7309 68.4208 29.7309 67.9892V66.4039C29.7309 65.9722 30.0803 65.6228 30.5122 65.6228C30.944 65.6228 31.2934 65.9722 31.2934 66.4039V67.9892C31.2934 68.0918 31.2732 68.1934 31.234 68.2882C31.1947 68.383 31.1372 68.4691 31.0646 68.5416C30.9921 68.6142 30.9059 68.6717 30.8111 68.7109C30.7163 68.7501 30.6148 68.7703 30.5122 68.7703ZM8.63989 68.7703C8.20806 68.7703 7.85864 68.4208 7.85864 67.9892V66.4039C7.85859 66.3013 7.87877 66.1996 7.91801 66.1048C7.95726 66.0101 8.0148 65.9239 8.08736 65.8514C8.15992 65.7788 8.24607 65.7213 8.34088 65.6821C8.43568 65.6429 8.53729 65.6227 8.63989 65.6228C8.74248 65.6228 8.84407 65.6429 8.93885 65.6822C9.03364 65.7214 9.11976 65.7789 9.1923 65.8515C9.26483 65.924 9.32236 66.0101 9.3616 66.1049C9.40083 66.1997 9.421 66.3013 9.42095 66.4039V67.9892C9.421 68.0918 9.40083 68.1934 9.3616 68.2882C9.32236 68.3829 9.26483 68.4691 9.1923 68.5416C9.11976 68.6142 9.03364 68.6717 8.93885 68.7109C8.84407 68.7501 8.74248 68.7703 8.63989 68.7703ZM16.4286 85.9328C16.2215 85.9321 16.0231 85.85 15.8762 85.704L11.1893 81.0171C11.0481 80.8696 10.9703 80.6726 10.9725 80.4684C10.9748 80.2641 11.0569 80.0689 11.2014 79.9245C11.3458 79.7801 11.541 79.698 11.7453 79.6958C11.9495 79.6936 12.1465 79.7714 12.294 79.9126L16.5842 84.2027L19.2297 82.8908C19.3218 82.8423 19.4226 82.8127 19.5262 82.8037C19.6299 82.7948 19.7343 82.8066 19.8333 82.8386C19.9323 82.8706 20.0239 82.922 20.1027 82.99C20.1815 83.0579 20.246 83.1408 20.2923 83.234C20.3385 83.3272 20.3657 83.4287 20.3722 83.5325C20.3787 83.6364 20.3643 83.7405 20.33 83.8387C20.2956 83.9369 20.242 84.0272 20.1722 84.1044C20.1024 84.1816 20.0179 84.244 19.9237 84.288L16.7762 85.8503C16.6683 85.9045 16.5493 85.9327 16.4286 85.9328Z" fill="url(#paint2_linear_341_194)"></path><path d="M22.6762 85.9328C22.5588 85.9328 22.4399 85.9053 22.3299 85.8504L19.1824 84.2881C19.0022 84.1932 18.8663 84.0315 18.8037 83.8376C18.741 83.6438 18.7567 83.4332 18.8473 83.2507C18.9379 83.0683 19.0963 82.9285 19.2886 82.8612C19.4809 82.794 19.6918 82.8046 19.8764 82.8908L22.5205 84.2028L26.8108 79.9127C26.9583 79.7715 27.1553 79.6936 27.3595 79.6958C27.5637 79.6981 27.759 79.7802 27.9034 79.9246C28.0478 80.069 28.13 80.2642 28.1322 80.4684C28.1345 80.6727 28.0567 80.8697 27.9155 81.0172L23.2285 85.7041C23.082 85.8505 22.8833 85.9327 22.6762 85.9328ZM80.4582 95.3067H61.7108C61.2789 95.3067 60.9295 94.9572 60.9295 94.5256V89.3199C60.9295 86.2746 62.5483 85.0756 65.3434 84.0287C66.9424 83.4307 69.002 82.636 70.7475 81.8029C71.1379 81.6153 71.6033 81.7801 71.7895 82.1707C71.8338 82.2633 71.8594 82.3637 71.8649 82.4661C71.8703 82.5686 71.8556 82.6711 71.8214 82.7679C71.7873 82.8647 71.7344 82.9537 71.6658 83.0301C71.5972 83.1064 71.5143 83.1685 71.4217 83.2127C69.6213 84.0715 67.5205 84.8834 65.8912 85.4938C63.2229 86.4914 62.492 87.3123 62.492 89.3201V93.7445H80.4584C80.561 93.7445 80.6626 93.7647 80.7574 93.8039C80.8522 93.8432 80.9384 93.9007 81.0109 93.9733C81.0834 94.0458 81.141 94.132 81.1802 94.2268C81.2194 94.3216 81.2396 94.4232 81.2395 94.5258C81.2395 94.6284 81.2193 94.73 81.18 94.8247C81.1407 94.9195 81.0832 95.0056 81.0106 95.0781C80.9381 95.1506 80.852 95.2081 80.7572 95.2473C80.6624 95.2866 80.5608 95.3067 80.4582 95.3067Z" fill="url(#paint3_linear_341_194)"></path><path d="M99.2058 95.3066H80.4583C80.3558 95.3067 80.2542 95.2865 80.1594 95.2473C80.0646 95.2081 79.9785 95.1505 79.9059 95.078C79.8334 95.0055 79.7759 94.9193 79.7366 94.8245C79.6974 94.7298 79.6772 94.6282 79.6773 94.5256C79.6773 94.0938 80.0265 93.7443 80.4583 93.7443H98.4248V89.3199C98.4248 87.3121 97.6939 86.4883 95.0271 85.4936C93.396 84.8832 91.2939 84.0715 89.4919 83.208C89.3051 83.1185 89.1613 82.9585 89.0924 82.7631C89.0234 82.5677 89.0348 82.353 89.1242 82.166C89.3103 81.7738 89.7818 81.6105 90.1662 81.7982C91.913 82.6359 93.9744 83.4307 95.5748 84.0287C98.3683 85.0725 99.9871 86.2746 99.9871 89.3199V94.5256C99.9871 94.6282 99.9669 94.7298 99.9277 94.8246C99.8884 94.9194 99.8309 95.0055 99.7583 95.0781C99.6858 95.1506 99.5996 95.2081 99.5048 95.2473C99.41 95.2866 99.3084 95.3067 99.2058 95.3066ZM80.507 83.0217C76.0931 83.0217 68.7898 75.9959 68.7898 67.9893C68.7898 67.5574 69.1392 67.208 69.5708 67.208C70.0027 67.208 70.3521 67.5574 70.3521 67.9893C70.3521 74.9355 76.6869 81.4594 80.507 81.4594C84.3271 81.4594 90.6619 74.9357 90.6619 67.9893C90.6619 67.5574 91.0113 67.208 91.4431 67.208C91.5457 67.208 91.6473 67.2281 91.7421 67.2674C91.8369 67.3066 91.923 67.3642 91.9956 67.4367C92.0681 67.5093 92.1257 67.5954 92.1649 67.6902C92.2041 67.785 92.2242 67.8867 92.2242 67.9893C92.2242 75.9961 84.9209 83.0217 80.507 83.0217Z" fill="url(#paint4_linear_341_194)"></path><path d="M91.4431 68.7703C91.0113 68.7703 90.6619 68.4208 90.6619 67.9892V66.4039C90.6618 66.3013 90.682 66.1996 90.7212 66.1048C90.7605 66.0101 90.818 65.9239 90.8906 65.8514C90.9631 65.7788 91.0493 65.7213 91.1441 65.6821C91.2389 65.6429 91.3405 65.6227 91.4431 65.6228C91.5457 65.6228 91.6473 65.6429 91.7421 65.6822C91.8369 65.7214 91.923 65.7789 91.9955 65.8515C92.0681 65.924 92.1256 66.0101 92.1648 66.1049C92.2041 66.1997 92.2242 66.3013 92.2242 66.4039V67.9892C92.2242 68.0918 92.2041 68.1934 92.1648 68.2882C92.1256 68.3829 92.0681 68.4691 91.9955 68.5416C91.923 68.6142 91.8369 68.6717 91.7421 68.7109C91.6473 68.7501 91.5457 68.7703 91.4431 68.7703ZM69.5708 68.7703C69.4683 68.7703 69.3667 68.7501 69.2719 68.7109C69.1771 68.6717 69.091 68.6142 69.0184 68.5416C68.9459 68.4691 68.8884 68.3829 68.8491 68.2882C68.8099 68.1934 68.7897 68.0918 68.7898 67.9892V66.4039C68.7897 66.3013 68.8099 66.1997 68.8491 66.1049C68.8884 66.0101 68.9459 65.924 69.0184 65.8515C69.091 65.7789 69.1771 65.7214 69.2719 65.6822C69.3667 65.6429 69.4683 65.6228 69.5708 65.6228C70.0027 65.6228 70.3521 65.9722 70.3521 66.4039V67.9892C70.3521 68.0918 70.332 68.1934 70.2927 68.2882C70.2535 68.383 70.1959 68.4691 70.1234 68.5417C70.0508 68.6142 69.9647 68.6717 69.8699 68.711C69.7751 68.7502 69.6734 68.7703 69.5708 68.7703ZM77.358 85.9328C77.2554 85.9328 77.1539 85.9126 77.0591 85.8733C76.9644 85.8341 76.8783 85.7766 76.8058 85.704L72.1189 81.0171C71.9724 80.8707 71.8901 80.672 71.8901 80.4649C71.8901 80.2578 71.9724 80.0591 72.1189 79.9126C72.2654 79.7662 72.464 79.6839 72.6711 79.6839C72.8783 79.6839 73.0769 79.7662 73.2234 79.9126L77.5136 84.2027L80.1591 82.8908C80.2509 82.8448 80.3509 82.8175 80.4533 82.8102C80.5558 82.803 80.6586 82.816 80.756 82.8486C80.8533 82.8812 80.9433 82.9327 81.0207 83.0001C81.0982 83.0675 81.1615 83.1496 81.2072 83.2415C81.398 83.629 81.2408 84.0974 80.8548 84.288L77.7058 85.8503C77.5977 85.9041 77.4787 85.9323 77.358 85.9328Z" fill="url(#paint5_linear_341_194)"></path><path d="M83.6073 85.9328C83.4865 85.9324 83.3675 85.9042 83.2594 85.8504L80.1104 84.2881C79.9269 84.1948 79.7877 84.0327 79.7231 83.8373C79.6585 83.6418 79.6737 83.4288 79.7655 83.2445C79.8572 83.0602 80.0181 82.9196 80.213 82.8534C80.4079 82.7871 80.6211 82.8006 80.8061 82.8908L83.4516 84.2027L87.7418 79.9127C87.8144 79.8401 87.9005 79.7826 87.9952 79.7434C88.09 79.7041 88.1915 79.6839 88.2941 79.6839C88.3967 79.6839 88.4982 79.7041 88.593 79.7434C88.6877 79.7826 88.7738 79.8401 88.8463 79.9127C88.9189 79.9852 88.9764 80.0713 89.0156 80.166C89.0549 80.2608 89.0751 80.3624 89.0751 80.4649C89.0751 80.5675 89.0549 80.669 89.0156 80.7638C88.9764 80.8585 88.9189 80.9446 88.8463 81.0172L84.1594 85.7041C84.0129 85.8504 83.8144 85.9327 83.6073 85.9328ZM66.3975 68.7474C66.2611 68.7471 66.1271 68.7114 66.0086 68.6437C65.8896 68.5751 65.7907 68.4764 65.7219 68.3576C65.653 68.2387 65.6167 68.1038 65.6165 67.9664C65.6165 60.1029 69.5481 56.5679 71.4567 55.3154L70.5536 54.4795C70.4555 54.388 70.3825 54.273 70.3414 54.1453C70.3002 54.0177 70.2924 53.8817 70.3186 53.7502C70.3455 53.6183 70.4059 53.4957 70.4942 53.3941C70.5824 53.2926 70.6954 53.2155 70.8221 53.1705C70.9961 53.108 75.1368 51.6478 79.7688 51.6478C83.9309 51.6478 87.1286 52.8179 89.2706 55.1263C91.602 57.6375 92.595 61.4519 92.2227 66.4621C92.2107 66.6229 92.1493 66.776 92.0469 66.9006C91.9445 67.0251 91.8061 67.1149 91.6506 67.1578C91.4952 67.1995 91.3307 67.1926 91.1794 67.1381C91.028 67.0835 90.8969 66.9839 90.8038 66.8527L87.7311 62.4785C78.1879 62.0881 66.8995 68.5781 66.7895 68.6424C66.6704 68.7114 66.5352 68.7477 66.3975 68.7474ZM72.6116 54.2551L73.3028 54.8941C73.3982 54.9828 73.47 55.0937 73.5118 55.2171C73.5537 55.3404 73.5642 55.4722 73.5424 55.6006C73.5201 55.7287 73.4661 55.8493 73.3854 55.9514C73.3046 56.0534 73.1997 56.1337 73.0801 56.1849C72.8543 56.2857 67.7434 58.6215 67.2215 66.6265C70.5186 64.8935 79.9 60.4476 88.1967 60.9373C88.3142 60.9441 88.4286 60.9774 88.5314 61.0347C88.6342 61.0921 88.7226 61.1719 88.7901 61.2683L90.7323 64.0328C90.6651 60.6152 89.7911 57.982 88.1249 56.1879C86.2909 54.2121 83.4791 53.2097 79.7688 53.2097C76.8868 53.2101 74.1465 53.8324 72.6116 54.2551ZM80.4583 87.4951C80.3557 87.4952 80.2541 87.4751 80.1593 87.4358C80.0646 87.3965 79.9785 87.3389 79.9061 87.2662L78.3436 85.7041C78.269 85.632 78.2095 85.5458 78.1685 85.4505C78.1276 85.3552 78.106 85.2527 78.1051 85.1489C78.1042 85.0452 78.124 84.9423 78.1633 84.8463C78.2026 84.7503 78.2606 84.6631 78.3339 84.5897C78.4073 84.5163 78.4945 84.4583 78.5905 84.4191C78.6865 84.3798 78.7894 84.36 78.8931 84.3609C78.9969 84.3618 79.0994 84.3834 79.1947 84.4243C79.29 84.4653 79.3762 84.5248 79.4483 84.5994L81.0106 86.1617C81.1199 86.2709 81.1944 86.4101 81.2246 86.5616C81.2548 86.7132 81.2394 86.8703 81.1802 87.0131C81.1211 87.1558 81.0209 87.2779 80.8924 87.3637C80.7639 87.4495 80.6128 87.4952 80.4583 87.4951Z" fill="url(#paint6_linear_341_194)"></path><path d="M80.4583 87.4952C80.3037 87.4952 80.1527 87.4495 80.0242 87.3637C79.8957 87.2778 79.7955 87.1558 79.7364 87.0131C79.6773 86.8703 79.6619 86.7132 79.6921 86.5617C79.7223 86.4101 79.7968 86.271 79.9061 86.1618L81.4682 84.5995C81.5403 84.5248 81.6265 84.4653 81.7218 84.4244C81.8171 84.3834 81.9196 84.3619 82.0234 84.361C82.1271 84.3601 82.23 84.3799 82.326 84.4191C82.422 84.4584 82.5092 84.5164 82.5826 84.5898C82.6559 84.6631 82.7139 84.7504 82.7532 84.8464C82.7925 84.9424 82.8123 85.0453 82.8114 85.149C82.8105 85.2527 82.7889 85.3552 82.748 85.4506C82.707 85.5459 82.6475 85.6321 82.5729 85.7042L81.0106 87.2663C80.9381 87.3389 80.8521 87.3966 80.7573 87.4358C80.6625 87.4751 80.5609 87.4953 80.4583 87.4952Z" fill="url(#paint7_linear_341_194)"></path><path d="M78.8975 93.7443C78.7876 93.7445 78.6789 93.7215 78.5785 93.6768C78.478 93.6321 78.3882 93.5668 78.3147 93.485C78.2413 93.4032 78.186 93.3068 78.1523 93.2022C78.1186 93.0976 78.1074 92.987 78.1194 92.8777L78.9006 85.8475C78.9479 85.4174 79.3217 85.1029 79.7643 85.1565C79.97 85.1795 80.158 85.2832 80.2873 85.4448C80.4166 85.6064 80.4764 85.8127 80.4538 86.0184L79.6727 93.0486C79.6515 93.2396 79.5608 93.416 79.4178 93.5443C79.2748 93.6726 79.0896 93.7438 78.8975 93.7443Z" fill="url(#paint8_linear_341_194)"></path><path d="M82.0192 93.7443C81.8271 93.7438 81.6419 93.6726 81.4989 93.5443C81.3559 93.416 81.2652 93.2396 81.244 93.0486L80.4629 86.0184C80.4403 85.8127 80.5002 85.6064 80.6294 85.4448C80.7587 85.2832 80.9468 85.1795 81.1524 85.1564C81.595 85.1045 81.9688 85.4174 82.0161 85.8475L82.7973 92.8777C82.8093 92.987 82.7981 93.0976 82.7645 93.2022C82.7308 93.3069 82.6755 93.4033 82.602 93.485C82.5286 93.5668 82.4387 93.6322 82.3383 93.6769C82.2379 93.7216 82.1291 93.7446 82.0192 93.7443ZM75.7713 50C75.6889 50 75.6049 49.9871 75.5241 49.9596L66.2709 46.8754H39.8387C37.686 46.8754 35.9329 45.1231 35.9329 42.9697V14.8482C35.9329 12.6947 37.686 10.9424 39.8387 10.9424H83.5831C85.7374 10.9424 87.4887 12.6947 87.4887 14.8482V42.9695C87.4887 45.1229 85.7374 46.8752 83.5831 46.8752H76.5528V49.2188C76.5528 49.3214 76.5327 49.423 76.4934 49.5178C76.4541 49.6127 76.3966 49.6988 76.324 49.7714C76.2514 49.8439 76.1653 49.9015 76.0704 49.9407C75.9756 49.9799 75.874 50.0001 75.7713 50ZM39.8387 12.5047C38.5463 12.5047 37.4952 13.5561 37.4952 14.8482V42.9695C37.4952 44.2617 38.5463 45.3129 39.8387 45.3129H66.3975C66.4815 45.3129 66.5653 45.3266 66.6448 45.3533L74.9903 48.1346V46.0941C74.9903 45.6623 75.3395 45.3129 75.7713 45.3129H83.5829C84.875 45.3129 85.9262 44.2617 85.9262 42.9695V14.8482C85.9262 13.5561 84.875 12.5047 83.5829 12.5047H39.8387Z" fill="url(#paint9_linear_341_194)"></path><path d="M75.7712 21.8787H46.0876C45.656 21.8787 45.3064 21.5293 45.3064 21.0977C45.3064 20.6658 45.6558 20.3164 46.0876 20.3164H75.7712C76.2031 20.3164 76.5525 20.6658 76.5525 21.0977C76.5525 21.2002 76.5323 21.3018 76.4931 21.3966C76.4538 21.4914 76.3963 21.5775 76.3237 21.6501C76.2512 21.7226 76.165 21.7801 76.0702 21.8194C75.9754 21.8586 75.8738 21.8788 75.7712 21.8787ZM75.7712 29.6902H46.0876C45.656 29.6902 45.3064 29.3408 45.3064 28.909C45.3063 28.8064 45.3265 28.7048 45.3658 28.61C45.405 28.5152 45.4626 28.429 45.5351 28.3565C45.6077 28.284 45.6938 28.2264 45.7886 28.1872C45.8834 28.148 45.985 28.1279 46.0876 28.1279H75.7712C76.2031 28.1279 76.5525 28.4773 76.5525 28.909C76.5525 29.3408 76.2031 29.6902 75.7712 29.6902ZM61.7107 37.5016H46.0876C45.656 37.5016 45.3064 37.1523 45.3064 36.7205C45.3064 36.2887 45.6558 35.9393 46.0876 35.9393H61.7107C62.1425 35.9393 62.4918 36.2887 62.4918 36.7205C62.4918 37.1523 62.1425 37.5016 61.7107 37.5016ZM69.522 9.38008H53.8992C53.7966 9.38013 53.695 9.35996 53.6002 9.32073C53.5054 9.28149 53.4193 9.22396 53.3468 9.15143C53.2742 9.07889 53.2167 8.99277 53.1775 8.89798C53.1382 8.8032 53.1181 8.70161 53.1181 8.59902V5.47441C53.1181 5.37183 53.1382 5.27024 53.1775 5.17546C53.2167 5.08067 53.2742 4.99455 53.3468 4.92201C53.4193 4.84947 53.5054 4.79194 53.6002 4.75271C53.695 4.71348 53.7966 4.69331 53.8992 4.69336H69.522C69.9539 4.69336 70.3033 5.04258 70.3033 5.47441V8.59902C70.3033 8.70162 70.2832 8.80323 70.2439 8.89803C70.2047 8.99282 70.1471 9.07896 70.0746 9.1515C70.002 9.22404 69.9158 9.28156 69.821 9.32078C69.7262 9.36001 69.6246 9.38015 69.522 9.38008ZM54.6802 7.81797H68.741V6.25566H54.6802V7.81797Z" fill="url(#paint10_linear_341_194)"></path><path d="M53.8993 10.9424C53.7967 10.9424 53.6951 10.9223 53.6004 10.883C53.5056 10.8438 53.4194 10.7863 53.3469 10.7137C53.2744 10.6412 53.2168 10.5551 53.1776 10.4603C53.1384 10.3655 53.1182 10.2639 53.1183 10.1613V8.59902C53.1182 8.49644 53.1384 8.39485 53.1776 8.30007C53.2168 8.20528 53.2744 8.11916 53.3469 8.04662C53.4194 7.97408 53.5056 7.91655 53.6004 7.87732C53.6951 7.83809 53.7967 7.81792 53.8993 7.81797C54.0019 7.81789 54.1035 7.83804 54.1983 7.87727C54.2931 7.91649 54.3792 7.97402 54.4518 8.04656C54.5243 8.11911 54.5818 8.20524 54.6211 8.30004C54.6603 8.39483 54.6805 8.49643 54.6804 8.59902V10.1613C54.6805 10.2639 54.6603 10.3655 54.6211 10.4603C54.5818 10.5551 54.5243 10.6412 54.4518 10.7138C54.3792 10.7863 54.2931 10.8439 54.1983 10.8831C54.1035 10.9223 54.0019 10.9425 53.8993 10.9424ZM69.5222 10.9424C69.4196 10.9424 69.318 10.9223 69.2232 10.883C69.1284 10.8438 69.0423 10.7863 68.9698 10.7137C68.8972 10.6412 68.8397 10.5551 68.8005 10.4603C68.7612 10.3655 68.7411 10.2639 68.7411 10.1613V8.59902C68.7411 8.49644 68.7612 8.39485 68.8005 8.30007C68.8397 8.20528 68.8972 8.11916 68.9698 8.04662C69.0423 7.97408 69.1284 7.91655 69.2232 7.87732C69.318 7.83809 69.4196 7.81792 69.5222 7.81797C69.954 7.81797 70.3034 8.16719 70.3034 8.59902V10.1613C70.3035 10.2639 70.2833 10.3655 70.2441 10.4603C70.2048 10.5551 70.1473 10.6413 70.0747 10.7138C70.0021 10.7863 69.916 10.8439 69.8212 10.8831C69.7264 10.9223 69.6248 10.9425 69.5222 10.9424ZM47.6501 11.7236H42.9632C42.5315 11.7236 42.1819 11.3742 42.1819 10.9424C42.1819 10.8398 42.2021 10.7382 42.2413 10.6434C42.2805 10.5486 42.3381 10.4625 42.4107 10.3899C42.4832 10.3174 42.5694 10.2598 42.6642 10.2206C42.759 10.1814 42.8606 10.1613 42.9632 10.1613H47.6501C48.0819 10.1613 48.4313 10.5107 48.4313 10.9424C48.4313 11.3742 48.0819 11.7236 47.6501 11.7236ZM80.4583 11.7236H75.7714C75.6688 11.7237 75.5672 11.7035 75.4724 11.6643C75.3776 11.625 75.2915 11.5675 75.2189 11.4949C75.1464 11.4224 75.0888 11.3362 75.0496 11.2414C75.0104 11.1466 74.9903 11.045 74.9903 10.9424C74.9903 10.8398 75.0104 10.7382 75.0497 10.6434C75.0889 10.5486 75.1464 10.4625 75.219 10.39C75.2915 10.3174 75.3776 10.2599 75.4724 10.2207C75.5672 10.1814 75.6688 10.1613 75.7714 10.1613H80.4583C80.5609 10.1613 80.6625 10.1814 80.7573 10.2207C80.852 10.2599 80.9382 10.3174 81.0107 10.39C81.0832 10.4625 81.1408 10.5486 81.18 10.6434C81.2192 10.7382 81.2394 10.8398 81.2394 10.9424C81.2394 11.3742 80.8901 11.7236 80.4583 11.7236ZM57.0239 7.03672C56.9213 7.03677 56.8198 7.0166 56.725 6.97737C56.6302 6.93814 56.5441 6.88061 56.4715 6.80807C56.399 6.73553 56.3415 6.64941 56.3022 6.55462C56.263 6.45984 56.2428 6.35825 56.2429 6.25566V5.47441C56.2429 5.04258 56.5921 4.69336 57.0239 4.69336C57.4558 4.69336 57.805 5.04258 57.805 5.47441V6.25566C57.805 6.35825 57.7849 6.45984 57.7456 6.55462C57.7064 6.64941 57.6489 6.73553 57.5763 6.80807C57.5038 6.88061 57.4177 6.93814 57.3229 6.97737C57.2281 7.0166 57.1265 7.03677 57.0239 7.03672ZM60.1485 7.03672C59.7167 7.03672 59.3673 6.6873 59.3673 6.25566V5.47441C59.3672 5.37181 59.3874 5.27021 59.4267 5.17541C59.4659 5.08061 59.5234 4.99448 59.596 4.92194C59.6686 4.8494 59.7547 4.79188 59.8495 4.75265C59.9443 4.71343 60.0459 4.69328 60.1485 4.69336C60.2511 4.69331 60.3527 4.71348 60.4475 4.75271C60.5423 4.79194 60.6284 4.84947 60.7009 4.92201C60.7735 4.99455 60.831 5.08067 60.8702 5.17546C60.9095 5.27024 60.9296 5.37183 60.9296 5.47441V6.25566C60.9296 6.35825 60.9095 6.45984 60.8702 6.55462C60.831 6.64941 60.7735 6.73553 60.7009 6.80807C60.6284 6.88061 60.5423 6.93814 60.4475 6.97737C60.3527 7.0166 60.2511 7.03677 60.1485 7.03672ZM63.2731 7.03672C62.8413 7.03672 62.4919 6.6873 62.4919 6.25566V5.47441C62.4918 5.37181 62.512 5.27021 62.5513 5.17541C62.5905 5.08061 62.6481 4.99448 62.7206 4.92194C62.7932 4.8494 62.8793 4.79188 62.9741 4.75265C63.0689 4.71343 63.1705 4.69328 63.2731 4.69336C63.3757 4.69331 63.4773 4.71348 63.5721 4.75271C63.6669 4.79194 63.753 4.84947 63.8256 4.92201C63.8981 4.99455 63.9556 5.08067 63.9949 5.17546C64.0341 5.27024 64.0542 5.37183 64.0542 5.47441V6.25566C64.0542 6.35825 64.0341 6.45984 63.9949 6.55462C63.9556 6.64941 63.8981 6.73553 63.8256 6.80807C63.753 6.88061 63.6669 6.93814 63.5721 6.97737C63.4773 7.0166 63.3757 7.03677 63.2731 7.03672ZM66.3976 7.03672C66.295 7.03677 66.1934 7.0166 66.0986 6.97737C66.0038 6.93814 65.9177 6.88061 65.8451 6.80807C65.7726 6.73553 65.7151 6.64941 65.6758 6.55462C65.6366 6.45984 65.6165 6.35825 65.6165 6.25566V5.47441C65.6165 5.37183 65.6366 5.27024 65.6758 5.17546C65.7151 5.08067 65.7726 4.99455 65.8451 4.92201C65.9177 4.84947 66.0038 4.79194 66.0986 4.75271C66.1934 4.71348 66.295 4.69331 66.3976 4.69336C66.8294 4.69336 67.1788 5.04258 67.1788 5.47441V6.25566C67.1789 6.35826 67.1587 6.45987 67.1194 6.55467C67.0802 6.64946 67.0226 6.7356 66.9501 6.80814C66.8775 6.88068 66.7914 6.9382 66.6966 6.97743C66.6018 7.01665 66.5002 7.0368 66.3976 7.03672ZM16.4042 46.8754C16.2759 46.8756 16.1496 46.8439 16.0366 46.783C15.9117 46.7165 15.8073 46.6173 15.7344 46.496C15.6616 46.3747 15.6231 46.2358 15.6231 46.0943V43.7508H14.8419C12.6892 43.7508 10.936 41.9984 10.936 39.8451V24.2221C10.936 22.0688 12.6892 20.3164 14.8419 20.3164H33.5894C33.692 20.3164 33.7936 20.3365 33.8884 20.3758C33.9832 20.415 34.0693 20.4726 34.1418 20.5451C34.2144 20.6177 34.2719 20.7038 34.3111 20.7986C34.3503 20.8934 34.3705 20.9951 34.3704 21.0977C34.3705 21.2002 34.3503 21.3018 34.3111 21.3966C34.2718 21.4914 34.2143 21.5775 34.1418 21.6501C34.0692 21.7226 33.9831 21.7801 33.8883 21.8194C33.7935 21.8586 33.6919 21.8788 33.5894 21.8787H14.8419C13.5495 21.8787 12.4983 22.9299 12.4983 24.2221V39.8451C12.4983 41.1373 13.5495 42.1885 14.8419 42.1885H16.4042C16.8358 42.1885 17.1854 42.5379 17.1854 42.9697V44.6342L20.6579 42.3195C20.7862 42.234 20.9369 42.1883 21.0911 42.1883H33.5896C33.6922 42.1882 33.7938 42.2084 33.8886 42.2477C33.9834 42.2869 34.0695 42.3444 34.142 42.417C34.2146 42.4896 34.2721 42.5757 34.3113 42.6705C34.3505 42.7653 34.3707 42.8669 34.3706 42.9695C34.3707 43.0721 34.3505 43.1737 34.3113 43.2685C34.272 43.3633 34.2145 43.4494 34.142 43.5219C34.0694 43.5945 33.9833 43.652 33.8885 43.6912C33.7937 43.7305 33.6921 43.7506 33.5896 43.7506H21.3276L16.8374 46.7441C16.7092 46.8299 16.5584 46.8756 16.4042 46.8754Z" fill="url(#paint11_linear_341_194)"></path><path d="M33.5896 29.6902H19.5288C19.0972 29.6902 18.7476 29.3408 18.7476 28.909C18.7475 28.8064 18.7677 28.7048 18.8069 28.61C18.8462 28.5152 18.9037 28.4291 18.9763 28.3565C19.0488 28.284 19.135 28.2264 19.2298 28.1872C19.3246 28.148 19.4262 28.1279 19.5288 28.1279H33.5896C33.6921 28.1279 33.7937 28.148 33.8885 28.1873C33.9833 28.2265 34.0694 28.284 34.142 28.3566C34.2145 28.4291 34.272 28.5152 34.3113 28.61C34.3505 28.7048 34.3707 28.8064 34.3706 28.909C34.3706 29.3408 34.0212 29.6902 33.5896 29.6902Z" fill="url(#paint12_linear_341_194)"></path><path d="M33.5896 35.9393H19.5288C19.0972 35.9393 18.7476 35.59 18.7476 35.1582C18.7476 34.7264 19.097 34.377 19.5288 34.377H33.5896C34.0212 34.377 34.3706 34.7264 34.3706 35.1582C34.3706 35.59 34.0212 35.9393 33.5896 35.9393Z" fill="url(#paint13_linear_341_194)"></path></g><defs><linearGradient id="paint0_linear_341_194" x1="10.1785" y1="81.7258" x2="10.1785" y2="95.3067" gradientUnits="userSpaceOnUse"><stop stop-color="#FF7926"></stop><stop offset="1" stop-color="#EE9D00"></stop></linearGradient><linearGradient id="paint1_linear_341_194" x1="23.3893" y1="51.3402" x2="23.3893" y2="95.3066" gradientUnits="userSpaceOnUse"><stop stop-color="#FF7926"></stop><stop offset="1" stop-color="#EE9D00"></stop></linearGradient><linearGradient id="paint2_linear_341_194" x1="19.576" y1="65.6228" x2="19.576" y2="85.9328" gradientUnits="userSpaceOnUse"><stop stop-color="#FF7926"></stop><stop offset="1" stop-color="#EE9D00"></stop></linearGradient><linearGradient id="paint3_linear_341_194" x1="50.0027" y1="79.6958" x2="50.0027" y2="95.3067" gradientUnits="userSpaceOnUse"><stop stop-color="#FF7926"></stop><stop offset="1" stop-color="#EE9D00"></stop></linearGradient><linearGradient id="paint4_linear_341_194" x1="84.3884" y1="67.208" x2="84.3884" y2="95.3066" gradientUnits="userSpaceOnUse"><stop stop-color="#FF7926"></stop><stop offset="1" stop-color="#EE9D00"></stop></linearGradient><linearGradient id="paint5_linear_341_194" x1="80.507" y1="65.6228" x2="80.507" y2="85.9328" gradientUnits="userSpaceOnUse"><stop stop-color="#FF7926"></stop><stop offset="1" stop-color="#EE9D00"></stop></linearGradient><linearGradient id="paint6_linear_341_194" x1="78.9577" y1="51.6478" x2="78.9577" y2="87.4951" gradientUnits="userSpaceOnUse"><stop stop-color="#FF7926"></stop><stop offset="1" stop-color="#EE9D00"></stop></linearGradient><linearGradient id="paint7_linear_341_194" x1="81.2442" y1="84.361" x2="81.2442" y2="87.4952" gradientUnits="userSpaceOnUse"><stop stop-color="#FF7926"></stop><stop offset="1" stop-color="#EE9D00"></stop></linearGradient><linearGradient id="paint8_linear_341_194" x1="79.2866" y1="85.1505" x2="79.2866" y2="93.7443" gradientUnits="userSpaceOnUse"><stop stop-color="#FF7926"></stop><stop offset="1" stop-color="#EE9D00"></stop></linearGradient><linearGradient id="paint9_linear_341_194" x1="61.7108" y1="10.9424" x2="61.7108" y2="93.7443" gradientUnits="userSpaceOnUse"><stop stop-color="#FF7926"></stop><stop offset="1" stop-color="#EE9D00"></stop></linearGradient><linearGradient id="paint10_linear_341_194" x1="60.9294" y1="4.69336" x2="60.9294" y2="37.5016" gradientUnits="userSpaceOnUse"><stop stop-color="#FF7926"></stop><stop offset="1" stop-color="#EE9D00"></stop></linearGradient><linearGradient id="paint11_linear_341_194" x1="46.0877" y1="4.69336" x2="46.0877" y2="46.8754" gradientUnits="userSpaceOnUse"><stop stop-color="#FF7926"></stop><stop offset="1" stop-color="#EE9D00"></stop></linearGradient><linearGradient id="paint12_linear_341_194" x1="26.5591" y1="28.1279" x2="26.5591" y2="29.6902" gradientUnits="userSpaceOnUse"><stop stop-color="#FF7926"></stop><stop offset="1" stop-color="#EE9D00"></stop></linearGradient><linearGradient id="paint13_linear_341_194" x1="26.5591" y1="34.377" x2="26.5591" y2="35.9393" gradientUnits="userSpaceOnUse"><stop stop-color="#FF7926"></stop><stop offset="1" stop-color="#EE9D00"></stop></linearGradient><clipPath id="clip0_341_194"><rect width="100" height="100" fill="white"></rect></clipPath></defs></svg>